<?xml version="1.0" encoding="UTF-8"?>
<!DOCTYPE svg PUBLIC "-//W3C//DTD SVG 1.1//EN" "http://www.w3.org/Graphics/SVG/1.1/DTD/svg11.dtd">
<!-- Creator: CorelDRAW -->
<svg xmlns="http://www.w3.org/2000/svg" xml:space="preserve" width="48px" height="48px" version="1.1" shape-rendering="geometricPrecision" text-rendering="geometricPrecision" image-rendering="optimizeQuality" fill-rule="evenodd" clip-rule="evenodd"
viewBox="0 0 8.5 8.5"
 xmlns:xlink="http://www.w3.org/1999/xlink"
 xmlns:xodm="http://www.corel.com/coreldraw/odm/2003"
 data-name="Layer 1">
 <g id="Camada_x0020_1">
  <metadata id="CorelCorpID_0Corel-Layer"/>
  <g id="_1719388551760">
   <path fill="white" fill-rule="nonzero" d="M0.71 1.06c0,-0.58 0.47,-1.06 1.06,-1.06 0.59,0 1.06,0.48 1.06,1.06 0,0.59 -0.47,1.07 -1.06,1.07 -0.59,0 -1.06,-0.48 -1.06,-1.07zm1.77 2.84c0,0.58 0.48,1.06 1.06,1.06 0.59,0 1.06,-0.48 1.06,-1.06 0,-0.59 -0.47,-1.07 -1.06,-1.07 -0.58,0 -1.06,0.48 -1.06,1.07zm2.83 -1.77c0.59,0 1.07,-0.48 1.07,-1.07 0,-0.58 -0.48,-1.06 -1.07,-1.06 -0.58,0 -1.06,0.48 -1.06,1.06 0,0.59 0.48,1.07 1.06,1.07zm-3.2 0.75c-0.07,-0.29 -0.36,-0.46 -0.65,-0.38 -0.85,0.21 -1.46,1.03 -1.46,1.93 0,0.29 0.24,0.53 0.53,0.53 0.3,0 0.53,-0.24 0.53,-0.53 0,-0.42 0.29,-0.81 0.67,-0.9 0.28,-0.08 0.45,-0.37 0.38,-0.65l0 0zm3.91 1.55c0,0.29 0.24,0.53 0.53,0.53 0.3,0 0.53,-0.24 0.53,-0.53 0,-0.9 -0.61,-1.72 -1.46,-1.93 -0.28,-0.08 -0.57,0.09 -0.64,0.38 -0.08,0.28 0.09,0.57 0.38,0.65 0.38,0.09 0.66,0.48 0.66,0.9l0 0zm1.95 1.95l-0.53 0 0 -0.54c0,-0.29 -0.24,-0.53 -0.53,-0.53 -0.3,0 -0.53,0.24 -0.53,0.53l0 0.54 -0.54 0c-0.29,0 -0.53,0.23 -0.53,0.53 0,0.29 0.24,0.53 0.53,0.53l0.54 0 0 0.53c0,0.29 0.23,0.53 0.53,0.53 0.29,0 0.53,-0.24 0.53,-0.53l0 -0.53 0.53 0c0.29,0 0.53,-0.24 0.53,-0.53 0,-0.3 -0.24,-0.53 -0.53,-0.53l0 0zm-3.74 -0.96c-0.22,-0.07 -0.45,-0.11 -0.69,-0.11 -1.17,0 -2.12,0.88 -2.12,1.95 0,0.3 0.23,0.53 0.53,0.53 0.29,0 0.53,-0.23 0.53,-0.53 0,-0.49 0.48,-0.88 1.06,-0.88 0.13,0 0.26,0.02 0.37,0.05 0.29,0.09 0.58,-0.07 0.67,-0.35 0.09,-0.28 -0.07,-0.57 -0.35,-0.66l0 0z"/>
  </g>
 </g>
</svg>
