<?xml version="1.0" encoding="UTF-8"?>
<!DOCTYPE svg PUBLIC "-//W3C//DTD SVG 1.1//EN" "http://www.w3.org/Graphics/SVG/1.1/DTD/svg11.dtd">
<!-- Creator: CorelDRAW -->
<svg xmlns="http://www.w3.org/2000/svg" xml:space="preserve" width="48px" height="48px" version="1.1" shape-rendering="geometricPrecision" text-rendering="geometricPrecision" image-rendering="optimizeQuality" fill-rule="evenodd" clip-rule="evenodd"
viewBox="0 0 9 9"
 xmlns:xlink="http://www.w3.org/1999/xlink"
 xmlns:xodm="http://www.corel.com/coreldraw/odm/2003">
 <g id="Camada_x0020_1">
  <metadata id="CorelCorpID_0Corel-Layer"/>
  <path fill="white" fill-rule="nonzero" d="M8.25 2.12l0 -1.18c0,-0.31 -0.25,-0.56 -0.56,-0.56 -0.31,0 -0.56,0.25 -0.56,0.56l0 0.41 -1.48 -0.99c-0.7,-0.48 -1.6,-0.48 -2.3,0l-2.44 1.64c-0.57,0.38 -0.91,1.02 -0.91,1.71l0 3.23c0,1.14 0.93,2.06 2.06,2.06l1.13 0c0.31,0 0.56,-0.25 0.56,-0.56l0 -3c0,-0.1 0.08,-0.19 0.19,-0.19l1.12 0c0.11,0 0.19,0.09 0.19,0.19l0 3c0,0.31 0.25,0.56 0.56,0.56l1.13 0c1.13,0 2.06,-0.92 2.06,-2.06l0 -3.23c0,-0.62 -0.28,-1.2 -0.75,-1.59zm-0.37 4.82c0,0.52 -0.42,0.94 -0.94,0.94l-0.56 0 0 -2.44c0,-0.72 -0.59,-1.31 -1.32,-1.31l-1.12 0c-0.73,0 -1.31,0.59 -1.31,1.31l0 2.44 -0.57 0c-0.51,0 -0.93,-0.42 -0.93,-0.94l0 -3.23c0,-0.31 0.15,-0.6 0.41,-0.78l2.44 -1.64c0.31,-0.22 0.73,-0.22 1.04,0l2.44 1.64c0.26,0.18 0.42,0.47 0.42,0.78l0 3.23 0 0z"/>
 </g>
</svg>
