<?xml version="1.0" encoding="UTF-8"?>
<!DOCTYPE svg PUBLIC "-//W3C//DTD SVG 1.1//EN" "http://www.w3.org/Graphics/SVG/1.1/DTD/svg11.dtd">
<!-- Creator: CorelDRAW -->
<svg xmlns="http://www.w3.org/2000/svg" xml:space="preserve" width="48px" height="48px" version="1.1" shape-rendering="geometricPrecision" text-rendering="geometricPrecision" image-rendering="optimizeQuality" fill-rule="evenodd" clip-rule="evenodd"
viewBox="0 0 7.56 7.56"
 xmlns:xlink="http://www.w3.org/1999/xlink"
 xmlns:xodm="http://www.corel.com/coreldraw/odm/2003">
 <g id="Camada_x0020_1">
  <metadata id="CorelCorpID_0Corel-Layer"/>
  <g id="_1719738903536">
   <path fill="white" fill-rule="nonzero" d="M5.83 0l-4.1 0c-0.95,0 -1.73,0.78 -1.73,1.73l0 4.1c0,0.95 0.78,1.73 1.73,1.73l4.1 0c0.95,0 1.73,-0.78 1.73,-1.73l0 -4.1c0,-0.95 -0.78,-1.73 -1.73,-1.73zm0.78 5.83c0,0.43 -0.35,0.78 -0.78,0.78l-4.1 0c-0.43,0 -0.79,-0.35 -0.79,-0.78l0 -4.1c0,-0.43 0.36,-0.79 0.79,-0.79l4.1 0c0.43,0 0.78,0.36 0.78,0.79l0 4.1z"/>
   <path fill="white" fill-rule="nonzero" d="M5.98 4.88l0 0.63c0,0.26 -0.21,0.47 -0.47,0.47 -0.26,0 -0.47,-0.21 -0.47,-0.47l0 -0.63c0,-0.26 0.21,-0.47 0.47,-0.47 0.26,0 0.47,0.21 0.47,0.47z"/>
   <path fill="white" fill-rule="nonzero" d="M4.25 2.05l0 3.46c0,0.26 -0.21,0.47 -0.47,0.47 -0.26,0 -0.47,-0.21 -0.47,-0.47l0 -3.46c0,-0.26 0.21,-0.48 0.47,-0.48 0.26,0 0.47,0.22 0.47,0.48z"/>
   <path fill="white" fill-rule="nonzero" d="M2.52 2.99l0 2.52c0,0.26 -0.21,0.47 -0.47,0.47 -0.26,0 -0.48,-0.21 -0.48,-0.47l0 -2.52c0,-0.26 0.22,-0.47 0.48,-0.47 0.26,0 0.47,0.21 0.47,0.47l0 0z"/>
  </g>
 </g>
</svg>
