<?xml version="1.0" encoding="UTF-8"?>
<!DOCTYPE svg PUBLIC "-//W3C//DTD SVG 1.1//EN" "http://www.w3.org/Graphics/SVG/1.1/DTD/svg11.dtd">
<!-- Creator: CorelDRAW -->
<svg xmlns="http://www.w3.org/2000/svg" xml:space="preserve" width="40px" height="48px" version="1.1" shape-rendering="geometricPrecision" text-rendering="geometricPrecision" image-rendering="optimizeQuality" fill-rule="evenodd" clip-rule="evenodd"
viewBox="0 0 4.92 5.9"
 xmlns:xlink="http://www.w3.org/1999/xlink"
 xmlns:xodm="http://www.corel.com/coreldraw/odm/2003">
 <g id="Camada_x0020_1">
  <metadata id="CorelCorpID_0Corel-Layer"/>
  <g id="_1718728729808">
   <path fill="white" fill-rule="nonzero" d="M3.32 2.7c0.2,0 0.37,0.17 0.37,0.37 0,0.21 -0.17,0.37 -0.37,0.37l-1.72 0c-0.21,0 -0.37,-0.16 -0.37,-0.37 0,-0.2 0.16,-0.37 0.37,-0.37l1.72 0z"/>
   <path fill="white" fill-rule="nonzero" d="M2.58 3.93c0.2,0 0.37,0.17 0.37,0.37 0,0.2 -0.17,0.37 -0.37,0.37l-0.98 0c-0.21,0 -0.37,-0.17 -0.37,-0.37 0,-0.2 0.16,-0.37 0.37,-0.37l0.98 0z"/>
   <path fill="white" fill-rule="nonzero" d="M3.56 5.9l-2.21 0c-0.37,0 -0.71,-0.15 -0.95,-0.4l0 0c-0.25,-0.24 -0.4,-0.58 -0.4,-0.95l0 -3.2c0,-0.37 0.15,-0.71 0.4,-0.95l0 0c0.24,-0.25 0.58,-0.4 0.95,-0.4l0 0 1.56 0 0 0c0.18,0 0.35,0.04 0.52,0.1 0.16,0.07 0.31,0.17 0.44,0.3l0.02 0.02 0.63 0.63 0 0c0.13,0.13 0.22,0.27 0.29,0.44l0.01 0.02c0.06,0.16 0.1,0.33 0.1,0.49l0 2.55c0,0.37 -0.16,0.71 -0.4,0.95l0 0c-0.25,0.25 -0.58,0.4 -0.96,0.4zm-2.21 -0.74l2.21 0c0.17,0 0.33,-0.07 0.44,-0.18 0.11,-0.11 0.18,-0.26 0.18,-0.43l0 -2.55c0,-0.07 -0.02,-0.15 -0.04,-0.22l-0.01 -0.01c-0.03,-0.07 -0.07,-0.14 -0.13,-0.2 0,0 -0.58,-0.58 -0.64,-0.63l-0.01 -0.02c-0.06,-0.06 -0.13,-0.11 -0.2,-0.14 -0.08,-0.03 -0.16,-0.04 -0.24,-0.04l0 0 -1.56 0 0 0c-0.17,0 -0.32,0.07 -0.43,0.18l0 0c-0.11,0.11 -0.18,0.26 -0.18,0.43l0 3.2c0,0.17 0.07,0.32 0.18,0.43 0.11,0.11 0.26,0.18 0.43,0.18z"/>
   <path id="path315" fill="white" fill-rule="nonzero" d="M4.55 2c0,-0.26 -0.11,-0.51 -0.29,-0.69l-0.65 -0.65c-0.19,-0.19 -0.44,-0.29 -0.7,-0.29l-0.21 0 0 1.35c0,0.27 0.22,0.49 0.5,0.49l1.35 0 0 -0.21z"/>
  </g>
 </g>
</svg>
