<?xml version="1.0" encoding="UTF-8"?>
<!DOCTYPE svg PUBLIC "-//W3C//DTD SVG 1.1//EN" "http://www.w3.org/Graphics/SVG/1.1/DTD/svg11.dtd">
<!-- Creator: CorelDRAW -->
<svg xmlns="http://www.w3.org/2000/svg" xml:space="preserve" width="48px" height="48px" version="1.1" shape-rendering="geometricPrecision" text-rendering="geometricPrecision" image-rendering="optimizeQuality" fill-rule="evenodd" clip-rule="evenodd"
viewBox="0 0 8.48 8.48"
 xmlns:xlink="http://www.w3.org/1999/xlink"
 xmlns:xodm="http://www.corel.com/coreldraw/odm/2003"
 data-name="Layer 1">
 <g id="Camada_x0020_1">
  <metadata id="CorelCorpID_0Corel-Layer"/>
  <g id="_1682035672384">
   <path fill="white" fill-rule="nonzero" d="M3.18 1.77c0,-0.59 0.48,-1.06 1.06,-1.06 0.59,0 1.06,0.47 1.06,1.06 0,0.58 -0.47,1.06 -1.06,1.06 -0.58,0 -1.06,-0.48 -1.06,-1.06zm3.54 0.35c0.58,0 1.06,-0.47 1.06,-1.06 0,-0.59 -0.48,-1.06 -1.06,-1.06 -0.59,0 -1.06,0.47 -1.06,1.06 0,0.59 0.47,1.06 1.06,1.06zm-4.95 0c0.58,0 1.06,-0.47 1.06,-1.06 0,-0.59 -0.48,-1.06 -1.06,-1.06 -0.59,0 -1.06,0.47 -1.06,1.06 0,0.59 0.47,1.06 1.06,1.06l0 0zm4.24 2.65l0 0.71c0,0.47 -0.21,0.88 -0.53,1.18l0 1.29c0,0.3 -0.24,0.53 -0.53,0.53 -0.29,0 -0.53,-0.23 -0.53,-0.53l0 -0.88 -0.36 0 0 0.88c0,0.3 -0.23,0.53 -0.53,0.53 -0.29,0 -0.53,-0.23 -0.53,-0.53l0 -1.29c-0.32,-0.3 -0.53,-0.71 -0.53,-1.18l0 -0.71c0,-0.87 0.72,-1.59 1.59,-1.59l0.36 0c0.88,0 1.59,0.71 1.59,1.59l0 0zm-1.06 0c0,-0.29 -0.24,-0.53 -0.53,-0.53l-0.36 0c-0.29,0 -0.53,0.24 -0.53,0.53l0 0.71c0,0.29 0.24,0.53 0.53,0.53l0.36 0c0.29,0 0.53,-0.24 0.53,-0.53l0 -0.71 0 0zm1.94 -2.3l-0.35 0c-0.29,0 -0.53,0.24 -0.53,0.53 0,0.3 0.24,0.53 0.53,0.53l0.35 0c0.29,0 0.53,0.24 0.53,0.53l0 0.71c0,0.23 -0.14,0.43 -0.35,0.5 -0.21,0.08 -0.35,0.28 -0.35,0.5l0 1.48c0,0.29 0.23,0.53 0.53,0.53 0.29,0 0.53,-0.24 0.53,-0.53l0 -1.15c0.43,-0.3 0.7,-0.79 0.7,-1.33l0 -0.7c0,-0.88 -0.71,-1.6 -1.59,-1.6l0 0zm-4.95 0l-0.35 0c-0.88,0 -1.59,0.72 -1.59,1.59l0 0.71c0,0.54 0.27,1.03 0.71,1.32l0 1.16c0,0.29 0.23,0.53 0.53,0.53 0.29,0 0.53,-0.24 0.53,-0.53l0 -1.48c0,-0.22 -0.14,-0.42 -0.36,-0.5 -0.21,-0.07 -0.35,-0.27 -0.35,-0.5l0 -0.71c0,-0.29 0.24,-0.53 0.53,-0.53l0.35 0c0.3,0 0.53,-0.23 0.53,-0.53 0,-0.29 -0.23,-0.53 -0.53,-0.53l0 0z"/>
  </g>
 </g>
</svg>
