<?xml version="1.0" encoding="UTF-8"?>
<!DOCTYPE svg PUBLIC "-//W3C//DTD SVG 1.1//EN" "http://www.w3.org/Graphics/SVG/1.1/DTD/svg11.dtd">
<svg xmlns="http://www.w3.org/2000/svg" version="1.1" width="1309px" height="1309px" style="shape-rendering:geometricPrecision; text-rendering:geometricPrecision; image-rendering:optimizeQuality; fill-rule:evenodd; clip-rule:evenodd" xmlns:xlink="http://www.w3.org/1999/xlink">
<g><path style="opacity:0.987" fill="#37acac" d="M 650.5,-0.5 C 652.833,-0.5 655.167,-0.5 657.5,-0.5C 859.739,5.04816 1026.57,84.0482 1158,236.5C 1254.89,355.623 1305.05,492.289 1308.5,646.5C 1308.5,651.833 1308.5,657.167 1308.5,662.5C 1302.47,853.694 1229.47,1013.86 1089.5,1143C 973.831,1244.31 838.831,1299.47 684.5,1308.5C 664.167,1308.5 643.833,1308.5 623.5,1308.5C 431.598,1295.8 273.431,1216.8 149,1071.5C 56.8288,957.748 6.99545,827.414 -0.5,680.5C -0.5,663.167 -0.5,645.833 -0.5,628.5C 9.33495,452.364 77.0016,302.864 202.5,180C 328.498,63.2083 477.831,3.04161 650.5,-0.5 Z"/></g>
<g><path style="opacity:1" fill="#023030" d="M 616.5,24.5 C 790.522,16.6667 942.856,69.5 1073.5,183C 1196.87,296.242 1265.37,436.742 1279,604.5C 1287.79,778.753 1235.46,931.42 1122,1062.5C 996.355,1198.21 840.522,1267.55 654.5,1270.5C 472.082,1266.35 318.915,1198.02 195,1065.5C 81.3896,936.032 28.0563,784.699 35,611.5C 49.9206,419.784 132.754,265.284 283.5,148C 382.442,74.8852 493.442,33.7185 616.5,24.5 Z"/></g>
<g><path style="opacity:1" fill="#c8fbc9" d="M 619.5,103.5 C 622.167,103.5 624.833,103.5 627.5,103.5C 627.263,104.791 627.596,105.791 628.5,106.5C 628.5,110.5 628.5,114.5 628.5,118.5C 619.148,119.001 609.815,119.668 600.5,120.5C 600.668,127.51 601.001,134.51 601.5,141.5C 613.152,140.592 624.819,139.926 636.5,139.5C 636.5,144.833 636.5,150.167 636.5,155.5C 619.816,156.216 603.149,157.216 586.5,158.5C 584.449,128.502 582.449,98.5017 580.5,68.5C 597.11,66.7974 613.777,65.7974 630.5,65.5C 630.5,70.5 630.5,75.5 630.5,80.5C 619.516,81.4076 608.516,82.0743 597.5,82.5C 598.187,89.8131 598.521,97.1464 598.5,104.5C 605.49,104.001 612.49,103.668 619.5,103.5 Z"/></g>
<g><path style="opacity:1" fill="#c6f9c8" d="M 683.5,64.5 C 689.138,65.2197 694.804,65.553 700.5,65.5C 698.105,95.4721 695.938,125.472 694,155.5C 688.611,155.769 683.111,155.769 677.5,155.5C 679.5,125.169 681.5,94.8357 683.5,64.5 Z"/></g>
<g><path style="opacity:1" fill="#c7fac8" d="M 723.5,67.5 C 728.861,68.0992 734.194,68.9326 739.5,70C 740.126,70.7504 740.626,71.5838 741,72.5C 745.413,92.5634 750.079,112.563 755,132.5C 758.093,112.926 761.926,93.5922 766.5,74.5C 771.041,75.9845 775.708,76.6512 780.5,76.5C 775.02,106.088 770.02,135.755 765.5,165.5C 759.409,165.843 753.575,164.843 748,162.5C 743.804,142.641 738.971,122.975 733.5,103.5C 729.413,121.687 726.08,140.021 723.5,158.5C 718.452,158.158 713.452,157.492 708.5,156.5C 713.339,126.81 718.339,97.1434 723.5,67.5 Z"/></g>
<g><path style="opacity:1" fill="#c8fbc8" d="M 526.5,78.5 C 543.335,75.6581 554.168,82.3248 559,98.5C 562.642,112.734 565.809,127.068 568.5,141.5C 567.734,156.77 559.734,165.604 544.5,168C 536.175,169.944 527.841,171.777 519.5,173.5C 513.274,143.808 506.94,114.141 500.5,84.5C 509.428,83.0991 518.095,81.0991 526.5,78.5 Z"/></g>
<g><path style="opacity:1" fill="#c7fac8" d="M 799.5,82.5 C 817.498,87.0349 835.498,91.7016 853.5,96.5C 852.481,101.243 851.147,105.909 849.5,110.5C 848.667,110.833 847.833,111.167 847,111.5C 842.147,110.245 837.314,108.912 832.5,107.5C 831.833,107.833 831.167,108.167 830.5,108.5C 823.384,130.959 816.884,153.625 811,176.5C 809.933,178.283 808.433,178.783 806.5,178C 803.167,177 799.833,176 796.5,175C 795.572,174.612 794.905,173.945 794.5,173C 801.067,149.799 807.734,126.632 814.5,103.5C 809.04,101.047 803.373,99.0474 797.5,97.5C 797.167,96.6667 796.833,95.8333 796.5,95C 797.426,90.7961 798.426,86.6294 799.5,82.5 Z"/></g>
<g><path style="opacity:1" fill="#043232" d="M 526.5,94.5 C 532.039,93.6384 536.872,94.9718 541,98.5C 545.086,112.516 548.586,126.683 551.5,141C 551.513,144.637 550.18,147.637 547.5,150C 542.63,151.967 537.63,153.467 532.5,154.5C 528.167,135.167 523.833,115.833 519.5,96.5C 522.067,96.2785 524.401,95.6118 526.5,94.5 Z"/></g>
<g><path style="opacity:1" fill="#67987e" d="M 619.5,103.5 C 622.287,102.523 625.287,102.19 628.5,102.5C 628.5,103.833 628.5,105.167 628.5,106.5C 627.596,105.791 627.263,104.791 627.5,103.5C 624.833,103.5 622.167,103.5 619.5,103.5 Z"/></g>
<g><path style="opacity:1" fill="#c8fbc9" d="M 873.5,106.5 C 874.873,106.343 876.207,106.51 877.5,107C 891.415,113.46 905.415,119.626 919.5,125.5C 918.031,130.574 916.364,135.574 914.5,140.5C 903.722,136.529 893.222,131.863 883,126.5C 879.705,132.923 876.539,139.423 873.5,146C 881.923,150.295 890.423,154.461 899,158.5C 897.834,163.192 896.334,167.859 894.5,172.5C 885.527,169.266 876.694,165.6 868,161.5C 864.183,167.084 861.017,173.084 858.5,179.5C 868.628,184.941 878.961,190.107 889.5,195C 887.1,199.641 884.6,204.141 882,208.5C 867.584,201.806 853.084,195.306 838.5,189C 837.978,188.439 837.645,187.772 837.5,187C 849.375,160.086 861.375,133.253 873.5,106.5 Z"/></g>
<g><path style="opacity:1" fill="#c7fac8" d="M 419.5,114.5 C 440.635,137.806 461.635,161.306 482.5,185C 477.871,187.898 473.037,190.398 468,192.5C 465.013,188.513 461.68,184.847 458,181.5C 450.532,184.568 443.199,187.901 436,191.5C 436,195.679 436.5,199.845 437.5,204C 437.167,204.833 436.833,205.667 436.5,206.5C 431.624,208.901 426.624,210.901 421.5,212.5C 417.998,181.815 414.331,151.149 410.5,120.5C 410.833,119.833 411.167,119.167 411.5,118.5C 414.507,117.663 417.174,116.33 419.5,114.5 Z"/></g>
<g><path style="opacity:1" fill="#c8fbc9" d="M 937.5,136.5 C 942.639,138.569 947.306,141.402 951.5,145C 939.716,166.285 927.716,187.452 915.5,208.5C 924.247,214.727 933.414,220.393 943,225.5C 942.968,227.598 942.301,229.598 941,231.5C 939.401,234.378 937.567,237.044 935.5,239.5C 922.5,232 909.5,224.5 896.5,217C 895.272,216.221 894.272,215.221 893.5,214C 908.31,188.209 922.977,162.376 937.5,136.5 Z"/></g>
<g><path style="opacity:1" fill="#c8fbc9" d="M 370.5,139.5 C 371.496,139.414 372.329,139.748 373,140.5C 387.247,165.996 401.747,191.33 416.5,216.5C 412.295,219.859 407.795,222.859 403,225.5C 388.333,200.167 373.667,174.833 359,149.5C 358.316,148.216 358.483,147.049 359.5,146C 363.23,143.807 366.897,141.64 370.5,139.5 Z"/></g>
<g><path style="opacity:1" fill="#063433" d="M 428.5,146.5 C 435.529,153.198 441.862,160.532 447.5,168.5C 442.864,170.818 438.198,173.151 433.5,175.5C 431.194,165.966 429.527,156.299 428.5,146.5 Z"/></g>
<g><path style="opacity:1" fill="#c8fbc9" d="M 329.5,167.5 C 341.098,167.27 349.598,172.27 355,182.5C 360.35,191.051 360.85,199.884 356.5,209C 368.5,216.333 380.5,223.667 392.5,231C 387.656,234.515 382.823,238.015 378,241.5C 366.433,234.632 354.933,227.632 343.5,220.5C 341.321,221.757 339.321,223.257 337.5,225C 344.254,235.175 351.254,245.175 358.5,255C 354.603,258.531 350.436,261.697 346,264.5C 328.112,240.278 310.612,215.778 293.5,191C 304.789,181.87 316.789,174.037 329.5,167.5 Z"/></g>
<g><path style="opacity:1" fill="#c7fac8" d="M 994.5,172.5 C 999.282,175.399 1003.95,178.566 1008.5,182C 991.123,206.588 973.623,231.088 956,255.5C 951.5,252.333 947,249.167 942.5,246C 959.966,221.559 977.299,197.059 994.5,172.5 Z"/></g>
<g><path style="opacity:1" fill="#063333" d="M 328.5,184.5 C 334.347,183.84 338.513,186.173 341,191.5C 344.921,196.895 344.088,201.395 338.5,205C 335.032,206.97 331.699,209.136 328.5,211.5C 323.814,206.142 319.481,200.475 315.5,194.5C 319.876,191.112 324.209,187.778 328.5,184.5 Z"/></g>
<g><path style="opacity:1" fill="#314444" d="M 662.5,268.5 C 659.833,268.5 657.167,268.5 654.5,268.5C 654.398,243.163 654.065,217.83 653.5,192.5C 656.5,192.5 659.5,192.5 662.5,192.5C 662.5,217.833 662.5,243.167 662.5,268.5 Z"/></g>
<g><path style="opacity:1" fill="#324444" d="M 675.5,308.5 C 675.5,299.5 675.5,290.5 675.5,281.5C 677.34,252.346 678.674,223.013 679.5,193.5C 682.167,193.5 684.833,193.5 687.5,193.5C 686.118,231.846 684.452,270.18 682.5,308.5C 680.167,308.5 677.833,308.5 675.5,308.5 Z"/></g>
<g><path style="opacity:1" fill="#314444" d="M 640.5,268.5 C 637.833,268.5 635.167,268.5 632.5,268.5C 630.878,243.499 629.211,218.499 627.5,193.5C 630.167,193.5 632.833,193.5 635.5,193.5C 636.922,218.521 638.589,243.521 640.5,268.5 Z"/></g>
<g><path style="opacity:1" fill="#304343" d="M 713.5,204.5 C 710.833,204.5 708.167,204.5 705.5,204.5C 705.508,201.455 705.841,198.455 706.5,195.5C 709.167,195.5 711.833,195.5 714.5,195.5C 714.632,198.57 714.299,201.57 713.5,204.5 Z"/></g>
<g><path style="opacity:1" fill="#314444" d="M 604.5,195.5 C 606.167,195.5 607.833,195.5 609.5,195.5C 613.904,233.54 618.571,271.54 623.5,309.5C 620.873,310.092 618.206,310.425 615.5,310.5C 610.613,272.517 605.946,234.517 601.5,196.5C 602.791,196.737 603.791,196.404 604.5,195.5 Z"/></g>
<g><path style="opacity:1" fill="#314444" d="M 595.5,268.5 C 592.833,268.5 590.167,268.5 587.5,268.5C 583.556,246.674 579.556,224.841 575.5,203C 575.755,201.674 576.422,200.674 577.5,200C 579.473,199.505 581.473,199.338 583.5,199.5C 587.34,222.526 591.34,245.526 595.5,268.5 Z"/></g>
<g><path style="opacity:1" fill="#314444" d="M 747.5,251.5 C 748.461,249.735 748.795,247.735 748.5,245.5C 752.189,232.419 755.355,219.086 758,205.5C 758.308,204.692 758.808,204.025 759.5,203.5C 761.925,204.308 764.258,205.308 766.5,206.5C 757.783,243.418 749.45,280.418 741.5,317.5C 738.873,316.908 736.206,316.575 733.5,316.5C 738.164,294.839 742.831,273.173 747.5,251.5 Z"/></g>
<g><path style="opacity:1" fill="#314444" d="M 572.5,268.5 C 569.833,268.5 567.167,268.5 564.5,268.5C 559.422,248.355 554.422,228.189 549.5,208C 551.39,206.096 553.724,204.93 556.5,204.5C 562.464,225.689 567.797,247.022 572.5,268.5 Z"/></g>
<g><path style="opacity:1" fill="#317171" d="M 705.5,204.5 C 708.167,204.5 710.833,204.5 713.5,204.5C 725.167,204.5 736.833,204.5 748.5,204.5C 748.5,218.167 748.5,231.833 748.5,245.5C 748.795,247.735 748.461,249.735 747.5,251.5C 742.167,251.5 736.833,251.5 731.5,251.5C 728.833,251.5 726.167,251.5 723.5,251.5C 718.5,251.5 713.5,251.5 708.5,251.5C 706.167,251.5 703.833,251.5 701.5,251.5C 701.5,249.5 701.5,247.5 701.5,245.5C 701.5,231.833 701.5,218.167 701.5,204.5C 702.833,204.5 704.167,204.5 705.5,204.5 Z"/></g>
<g><path style="opacity:1" fill="#c8fac8" d="M 1022.5,205.5 C 1037.91,204.451 1049.07,210.784 1056,224.5C 1058.64,234.586 1056.47,243.586 1049.5,251.5C 1045.19,248.357 1041.02,245.023 1037,241.5C 1038.08,238.733 1038.91,235.733 1039.5,232.5C 1036.9,223.131 1031.23,220.631 1022.5,225C 1013.33,235.5 1004.17,246 995,256.5C 992.466,264.216 994.966,269.716 1002.5,273C 1005.26,273.584 1007.92,273.25 1010.5,272C 1013.17,269.333 1015.83,266.667 1018.5,264C 1015.96,261.289 1013.29,258.789 1010.5,256.5C 1013.86,252.808 1017.2,249.141 1020.5,245.5C 1026.68,250.093 1032.68,254.927 1038.5,260C 1040.21,261.133 1040.71,262.633 1040,264.5C 1033.11,272.721 1025.61,280.221 1017.5,287C 998.741,293.046 985.241,286.879 977,268.5C 974.971,259.438 976.971,251.438 983,244.5C 991,235.167 999,225.833 1007,216.5C 1011.54,211.775 1016.7,208.108 1022.5,205.5 Z"/></g>
<g><path style="opacity:1" fill="#304444" d="M 776.5,268.5 C 775.504,283.658 775.17,298.991 775.5,314.5C 774.669,301.673 774.169,288.673 774,275.5C 769.667,290.5 765.333,305.5 761,320.5C 760.612,321.428 759.945,322.095 759,322.5C 756.901,321.713 754.734,321.38 752.5,321.5C 762.989,284.544 773.322,247.544 783.5,210.5C 786.686,210.613 789.353,211.78 791.5,214C 786.186,232.105 781.186,250.272 776.5,268.5 Z"/></g>
<g><path style="opacity:1" fill="#314444" d="M 555.5,287.5 C 555.5,296.833 555.5,306.167 555.5,315.5C 546.988,288.453 538.321,261.453 529.5,234.5C 529.5,230.167 529.5,225.833 529.5,221.5C 528.167,221.5 526.833,221.5 525.5,221.5C 525.534,218.801 524.867,216.301 523.5,214C 526.178,212.116 529.011,211.616 532,212.5C 539.57,237.705 547.404,262.705 555.5,287.5 Z"/></g>
<g><path style="opacity:1" fill="#c8fbc9" d="M 264.5,218.5 C 271.877,217.689 278.877,218.856 285.5,222C 290.968,226.467 296.135,231.3 301,236.5C 308.705,244.537 316.039,252.87 323,261.5C 328.588,276.971 324.422,289.138 310.5,298C 301.138,303.932 291.804,303.932 282.5,298C 269.658,285.824 257.491,272.991 246,259.5C 239.819,245.313 242.985,233.48 255.5,224C 258.564,222.141 261.564,220.308 264.5,218.5 Z"/></g>
<g><path style="opacity:1" fill="#314444" d="M 800.5,268.5 C 797.833,268.5 795.167,268.5 792.5,268.5C 796.821,253.702 801.655,239.035 807,224.5C 808.49,217.339 811.657,216.506 816.5,222C 811.06,237.486 805.727,252.986 800.5,268.5 Z"/></g>
<g><path style="opacity:1" fill="#317272" d="M 525.5,221.5 C 526.833,221.5 528.167,221.5 529.5,221.5C 529.5,225.833 529.5,230.167 529.5,234.5C 529.5,245.833 529.5,257.167 529.5,268.5C 527.833,268.5 526.167,268.5 524.5,268.5C 521.833,268.5 519.167,268.5 516.5,268.5C 510.833,268.5 505.167,268.5 499.5,268.5C 496.5,268.5 493.5,268.5 490.5,268.5C 487.833,268.5 485.167,268.5 482.5,268.5C 482.5,262.5 482.5,256.5 482.5,250.5C 482.5,243.833 482.5,237.167 482.5,230.5C 482.5,227.5 482.5,224.5 482.5,221.5C 496.833,221.5 511.167,221.5 525.5,221.5 Z"/></g>
<g><path style="opacity:1" fill="#314444" d="M 821.5,277.5 C 821.5,274.5 821.5,271.5 821.5,268.5C 820.167,268.5 818.833,268.5 817.5,268.5C 822.883,254.732 828.55,241.065 834.5,227.5C 836.996,228.58 839.33,229.914 841.5,231.5C 835.004,247.017 828.337,262.35 821.5,277.5 Z"/></g>
<g><path style="opacity:1" fill="#314444" d="M 482.5,230.5 C 482.5,237.167 482.5,243.833 482.5,250.5C 479.472,244.936 476.805,239.103 474.5,233C 476.623,230.091 479.29,229.257 482.5,230.5 Z"/></g>
<g><path style="opacity:1" fill="#043231" d="M 267.5,235.5 C 270.978,235.184 274.312,235.684 277.5,237C 287.697,246.863 297.53,257.029 307,267.5C 310.426,277.207 307.093,283.207 297,285.5C 294.679,285.091 292.513,284.257 290.5,283C 281.218,273.596 272.052,264.096 263,254.5C 258.598,246.644 260.098,240.31 267.5,235.5 Z"/></g>
<g><path style="opacity:1" fill="#314444" d="M 775.5,314.5 C 791.009,314.83 806.342,314.496 821.5,313.5C 834.258,288.91 846.258,263.91 857.5,238.5C 860.381,239.274 863.048,240.607 865.5,242.5C 848.651,276.864 831.818,311.198 815,345.5C 812.542,344.36 810.375,342.86 808.5,341C 812.364,332.772 816.364,324.605 820.5,316.5C 815.869,315.338 811.202,315.172 806.5,316C 803.437,323.054 800.104,329.888 796.5,336.5C 794.067,335.977 792.067,334.81 790.5,333C 792.447,327.155 794.78,321.488 797.5,316C 792.845,315.501 788.179,315.334 783.5,315.5C 782.406,320.358 780.739,325.025 778.5,329.5C 776.271,328.423 773.937,327.756 771.5,327.5C 772.546,323.076 773.879,318.743 775.5,314.5 Z"/></g>
<g><path style="opacity:1" fill="#314444" d="M 504.5,331.5 C 501.167,331.5 497.833,331.5 494.5,331.5C 480.115,302.398 465.449,273.398 450.5,244.5C 452.118,242.684 454.118,241.351 456.5,240.5C 457.478,240.977 458.311,241.643 459,242.5C 474.18,272.193 489.346,301.86 504.5,331.5 Z"/></g>
<g><path style="opacity:1" fill="#c4f7c6" d="M 1126.5,268.5 C 1126.5,271.167 1126.5,273.833 1126.5,276.5C 1125.5,276.5 1124.5,276.5 1123.5,276.5C 1120.14,276.384 1116.81,276.051 1113.5,275.5C 1113.5,270.5 1113.5,265.5 1113.5,260.5C 1108.86,260.528 1104.36,259.861 1100,258.5C 1099.5,254.179 1099.33,249.846 1099.5,245.5C 1108.06,247.509 1116.73,249.009 1125.5,250C 1126.48,256.076 1126.81,262.242 1126.5,268.5 Z"/></g>
<g><path style="opacity:1" fill="#314444" d="M 701.5,245.5 C 701.5,247.5 701.5,249.5 701.5,251.5C 703.833,251.5 706.167,251.5 708.5,251.5C 706.253,271.146 704.253,290.812 702.5,310.5C 699.833,310.167 697.167,309.833 694.5,309.5C 696.557,287.993 698.89,266.66 701.5,245.5 Z"/></g>
<g><path style="opacity:1" fill="#314444" d="M 723.5,251.5 C 726.167,251.5 728.833,251.5 731.5,251.5C 728.283,272.135 725.283,292.802 722.5,313.5C 720.08,313.708 717.747,313.374 715.5,312.5C 715.167,311.333 714.833,310.167 714.5,309C 717.773,289.864 720.773,270.697 723.5,251.5 Z"/></g>
<g><path style="opacity:1" fill="#314444" d="M 881.5,250.5 C 884.174,251.502 886.508,253.002 888.5,255C 870.22,288.394 851.554,321.56 832.5,354.5C 826.054,352.995 824.887,349.662 829,344.5C 846.766,313.301 864.266,281.968 881.5,250.5 Z"/></g>
<g><path style="opacity:1" fill="#c8fbc9" d="M 1084.5,251.5 C 1095.47,263.305 1106.3,275.305 1117,287.5C 1117.67,288.5 1117.67,289.5 1117,290.5C 1113.78,293.855 1110.28,296.855 1106.5,299.5C 1099.21,291.043 1091.71,282.71 1084,274.5C 1078.66,279.01 1073.49,283.677 1068.5,288.5C 1074.12,296.124 1080.12,303.457 1086.5,310.5C 1082.81,314.02 1078.98,317.353 1075,320.5C 1068.66,313.323 1062.16,306.323 1055.5,299.5C 1050.02,303.812 1044.69,308.312 1039.5,313C 1047.39,321.058 1054.73,329.558 1061.5,338.5C 1057.84,341.991 1054.01,345.324 1050,348.5C 1038.6,336.275 1027.77,323.608 1017.5,310.5C 1040.15,291.183 1062.48,271.516 1084.5,251.5 Z"/></g>
<g><path style="opacity:1" fill="#314444" d="M 482.5,333.5 C 482.5,339.167 482.5,344.833 482.5,350.5C 463.808,319.627 445.475,288.46 427.5,257C 429.29,255.266 431.29,253.766 433.5,252.5C 434.086,252.709 434.586,253.043 435,253.5C 450.298,280.598 466.132,307.264 482.5,333.5 Z"/></g>
<g><path style="opacity:1" fill="#c8fac8" d="M 219.5,260.5 C 224.217,263.037 228.551,266.204 232.5,270C 228.5,275 224.5,280 220.5,285C 239.667,300.167 258.833,315.333 278,330.5C 278.667,331.5 278.667,332.5 278,333.5C 275,337.167 272,340.833 269,344.5C 249.644,328.976 230.144,313.643 210.5,298.5C 206.344,303.46 202.177,308.46 198,313.5C 194.333,310.5 190.667,307.5 187,304.5C 187.044,302.721 187.711,301.055 189,299.5C 199.381,286.625 209.548,273.625 219.5,260.5 Z"/></g>
<g><path style="opacity:1" fill="#314444" d="M 409.5,266.5 C 411.592,266.561 413.092,267.561 414,269.5C 434,299.5 454,329.5 474,359.5C 474.667,360.5 474.667,361.5 474,362.5C 472.009,364.905 469.676,365.572 467,364.5C 447.059,333.562 426.726,302.895 406,272.5C 405.333,271.5 405.333,270.5 406,269.5C 407.518,268.837 408.685,267.837 409.5,266.5 Z"/></g>
<g><path style="opacity:1" fill="#314646" d="M 490.5,268.5 C 493.5,268.5 496.5,268.5 499.5,268.5C 507.938,289.379 516.938,310.046 526.5,330.5C 527.602,331.176 528.602,331.842 529.5,332.5C 513.833,332.5 498.167,332.5 482.5,332.5C 486.298,331.517 490.298,331.183 494.5,331.5C 497.833,331.5 501.167,331.5 504.5,331.5C 508.884,331.826 513.217,331.492 517.5,330.5C 508.105,309.974 499.105,289.308 490.5,268.5 Z"/></g>
<g><path style="opacity:1" fill="#324444" d="M 516.5,268.5 C 519.167,268.5 521.833,268.5 524.5,268.5C 531.629,287.883 538.962,307.216 546.5,326.5C 544.258,327.692 541.925,328.692 539.5,329.5C 530.999,309.495 523.332,289.161 516.5,268.5 Z"/></g>
<g><path style="opacity:1" fill="#317272" d="M 556.5,268.5 C 559.167,268.5 561.833,268.5 564.5,268.5C 567.167,268.5 569.833,268.5 572.5,268.5C 577.5,268.5 582.5,268.5 587.5,268.5C 590.167,268.5 592.833,268.5 595.5,268.5C 597.833,268.5 600.167,268.5 602.5,268.5C 602.5,283.833 602.5,299.167 602.5,314.5C 587.167,314.5 571.833,314.5 556.5,314.5C 556.5,299.167 556.5,283.833 556.5,268.5 Z"/></g>
<g><path style="opacity:1" fill="#37acac" d="M 629.5,268.5 C 630.5,268.5 631.5,268.5 632.5,268.5C 635.167,268.5 637.833,268.5 640.5,268.5C 645.167,268.5 649.833,268.5 654.5,268.5C 657.167,268.5 659.833,268.5 662.5,268.5C 666.833,268.5 671.167,268.5 675.5,268.5C 675.5,272.833 675.5,277.167 675.5,281.5C 675.5,290.5 675.5,299.5 675.5,308.5C 675.5,310.5 675.5,312.5 675.5,314.5C 660.167,314.5 644.833,314.5 629.5,314.5C 629.5,299.167 629.5,283.833 629.5,268.5 Z"/></g>
<g><path style="opacity:1" fill="#327372" d="M 776.5,268.5 C 781.833,268.5 787.167,268.5 792.5,268.5C 795.167,268.5 797.833,268.5 800.5,268.5C 806.167,268.5 811.833,268.5 817.5,268.5C 818.833,268.5 820.167,268.5 821.5,268.5C 821.5,271.5 821.5,274.5 821.5,277.5C 821.5,289.5 821.5,301.5 821.5,313.5C 806.342,314.496 791.009,314.83 775.5,314.5C 775.17,298.991 775.504,283.658 776.5,268.5 Z"/></g>
<g><path style="opacity:1" fill="#4a7967" d="M 1126.5,268.5 C 1127.48,271.287 1127.81,274.287 1127.5,277.5C 1125.9,277.768 1124.57,277.434 1123.5,276.5C 1124.5,276.5 1125.5,276.5 1126.5,276.5C 1126.5,273.833 1126.5,271.167 1126.5,268.5 Z"/></g>
<g><path style="opacity:1" fill="#314444" d="M 894.5,336.5 C 894.5,335.167 894.5,333.833 894.5,332.5C 879.167,332.5 863.833,332.5 848.5,332.5C 852.647,331.675 856.981,331.175 861.5,331C 875.638,308.548 890.138,286.381 905,264.5C 906.737,265.62 908.571,266.62 910.5,267.5C 911.521,268.002 911.688,268.668 911,269.5C 897.709,289.915 884.542,310.415 871.5,331C 877.167,331.667 882.833,331.667 888.5,331C 900.789,314.255 912.956,297.422 925,280.5C 926.049,279.483 927.216,279.316 928.5,280C 929.868,281.34 931.201,282.674 932.5,284C 920.372,301.951 907.705,319.451 894.5,336.5 Z"/></g>
<g><path style="opacity:1" fill="#314444" d="M 388.5,281.5 C 390.853,283.101 393.02,285.101 395,287.5C 415.974,315.975 437.141,344.308 458.5,372.5C 455.399,377.957 452.232,378.29 449,373.5C 426.784,344.326 405.118,314.993 384,285.5C 385.397,283.93 386.897,282.596 388.5,281.5 Z"/></g>
<g><path style="opacity:1" fill="#314444" d="M 894.5,372.5 C 894.5,368.167 894.5,363.833 894.5,359.5C 912.144,338.186 929.81,316.853 947.5,295.5C 950.109,296.443 952.109,298.11 953.5,300.5C 933.78,324.544 914.113,348.544 894.5,372.5 Z"/></g>
<g><path style="opacity:1" fill="#314444" d="M 367.5,297.5 C 369.371,297.859 370.871,298.859 372,300.5C 395.312,328.646 418.812,356.646 442.5,384.5C 440.958,387.796 438.624,389.129 435.5,388.5C 411.854,360.353 388.021,332.353 364,304.5C 363.333,303.5 363.333,302.5 364,301.5C 365.376,300.295 366.542,298.962 367.5,297.5 Z"/></g>
<g><path style="opacity:1" fill="#c8fbc9" d="M 1132.5,309.5 C 1136.41,314.003 1139.25,319.003 1141,324.5C 1129.58,341.674 1117.91,358.674 1106,375.5C 1105.33,376.167 1105.33,376.833 1106,377.5C 1122.41,366.709 1138.91,356.042 1155.5,345.5C 1158.53,349.205 1161.19,353.205 1163.5,357.5C 1138.79,374.193 1113.79,390.526 1088.5,406.5C 1085.43,402.713 1082.6,398.713 1080,394.5C 1079.33,393.5 1079.33,392.5 1080,391.5C 1091.32,374.482 1102.32,357.482 1113,340.5C 1097.25,350.625 1081.42,360.625 1065.5,370.5C 1062.77,367.384 1060.27,364.051 1058,360.5C 1057.33,359.5 1057.33,358.5 1058,357.5C 1082.98,341.6 1107.82,325.6 1132.5,309.5 Z"/></g>
<g><path style="opacity:1" fill="#314444" d="M 894.5,401.5 C 894.5,399.5 894.5,397.5 894.5,395.5C 893.5,395.5 892.5,395.5 891.5,395.5C 916.663,368.17 941.663,340.67 966.5,313C 967.167,312.333 967.833,312.333 968.5,313C 970.017,314.685 971.684,316.185 973.5,317.5C 947.482,345.684 921.649,374.017 896,402.5C 895.617,401.944 895.117,401.611 894.5,401.5 Z"/></g>
<g><path style="opacity:1" fill="#2b504f" d="M 556.5,268.5 C 556.5,283.833 556.5,299.167 556.5,314.5C 571.833,314.5 587.167,314.5 602.5,314.5C 594.582,315.06 586.582,316.06 578.5,317.5C 573.661,315.564 568.661,315.064 563.5,316C 564.406,317.699 564.739,319.533 564.5,321.5C 562.173,321.665 560.007,322.331 558,323.5C 556.659,320.978 555.826,318.311 555.5,315.5C 555.5,306.167 555.5,296.833 555.5,287.5C 555.177,280.978 555.51,274.645 556.5,268.5 Z"/></g>
<g><path style="opacity:1" fill="#1a6969" d="M 629.5,268.5 C 629.5,283.833 629.5,299.167 629.5,314.5C 644.833,314.5 660.167,314.5 675.5,314.5C 660.009,315.496 644.342,315.83 628.5,315.5C 628.17,299.658 628.504,283.991 629.5,268.5 Z"/></g>
<g><path style="opacity:1" fill="#314444" d="M 425.5,395.5 C 421.833,395.5 418.167,395.5 414.5,395.5C 390.839,371.005 367.339,346.339 344,321.5C 344.72,318.735 346.387,316.401 349,314.5C 374.705,341.369 400.205,368.369 425.5,395.5 Z"/></g>
<g><path style="opacity:1" fill="#c8fbc9" d="M 177.5,315.5 C 182.489,317.328 186.823,320.161 190.5,324C 185.714,332.404 180.548,340.57 175,348.5C 174.018,349.759 173.685,351.092 174,352.5C 179.242,356.539 184.742,360.205 190.5,363.5C 196.234,355.711 201.734,347.711 207,339.5C 211.33,342.338 215.496,345.338 219.5,348.5C 214.618,356.213 209.952,364.046 205.5,372C 207.477,374.302 209.81,376.302 212.5,378C 215.433,379.271 218.099,380.938 220.5,383C 221.635,383.749 222.635,383.583 223.5,382.5C 229.333,373.5 235.167,364.5 241,355.5C 245.172,357.919 249.172,360.585 253,363.5C 245.452,377.733 236.952,391.566 227.5,405C 226.5,405.667 225.5,405.667 224.5,405C 199.878,389.366 175.544,373.366 151.5,357C 159.98,343.026 168.647,329.193 177.5,315.5 Z"/></g>
<g><path style="opacity:1" fill="#314444" d="M 985.5,330.5 C 989.104,331.588 990.937,333.921 991,337.5C 964,363.833 937,390.167 910,416.5C 907.387,414.599 905.72,412.265 905,409.5C 932.033,383.299 958.867,356.966 985.5,330.5 Z"/></g>
<g><path style="opacity:1" fill="#37abab" d="M 482.5,332.5 C 498.167,332.5 513.833,332.5 529.5,332.5C 529.5,347.833 529.5,363.167 529.5,378.5C 513.833,378.5 498.167,378.5 482.5,378.5C 482.5,369.167 482.5,359.833 482.5,350.5C 482.5,344.833 482.5,339.167 482.5,333.5C 482.5,333.167 482.5,332.833 482.5,332.5 Z"/></g>
<g><path style="opacity:1" fill="#195151" d="M 675.5,332.5 C 660.167,332.5 644.833,332.5 629.5,332.5C 629.5,347.833 629.5,363.167 629.5,378.5C 628.504,363.009 628.17,347.342 628.5,331.5C 644.342,331.17 660.009,331.504 675.5,332.5 Z"/></g>
<g><path style="opacity:1" fill="#317272" d="M 675.5,332.5 C 675.5,347.833 675.5,363.167 675.5,378.5C 660.167,378.5 644.833,378.5 629.5,378.5C 629.5,363.167 629.5,347.833 629.5,332.5C 644.833,332.5 660.167,332.5 675.5,332.5 Z"/></g>
<g><path style="opacity:1" fill="#38adac" d="M 702.5,332.5 C 717.833,332.5 733.167,332.5 748.5,332.5C 748.5,347.833 748.5,363.167 748.5,378.5C 733.167,378.5 717.833,378.5 702.5,378.5C 702.5,363.167 702.5,347.833 702.5,332.5 Z"/></g>
<g><path style="opacity:1" fill="#327372" d="M 848.5,332.5 C 863.833,332.5 879.167,332.5 894.5,332.5C 894.5,333.833 894.5,335.167 894.5,336.5C 894.5,344.167 894.5,351.833 894.5,359.5C 894.5,363.833 894.5,368.167 894.5,372.5C 894.5,374.5 894.5,376.5 894.5,378.5C 892.833,378.5 891.167,378.5 889.5,378.5C 885.833,378.5 882.167,378.5 878.5,378.5C 868.5,378.5 858.5,378.5 848.5,378.5C 848.5,363.167 848.5,347.833 848.5,332.5 Z"/></g>
<g><path style="opacity:1" fill="#314444" d="M 409.5,406.5 C 409.5,410.167 409.5,413.833 409.5,417.5C 381.057,391.561 352.724,365.394 324.5,339C 326.333,337.167 328.167,335.333 330,333.5C 356.37,358.039 382.87,382.373 409.5,406.5 Z"/></g>
<g><path style="opacity:1" fill="#314444" d="M 1003.5,350.5 C 1006.07,351.396 1008.07,353.062 1009.5,355.5C 981.137,381.363 952.303,406.696 923,431.5C 921.285,429.241 919.452,427.074 917.5,425C 946.359,400.302 975.026,375.468 1003.5,350.5 Z"/></g>
<g><path style="opacity:1" fill="#314444" d="M 311.5,353.5 C 312.922,353.709 314.255,354.209 315.5,355C 342.982,378.238 370.649,401.238 398.5,424C 400.007,424.837 400.507,426.004 400,427.5C 398.446,430.102 396.28,431.269 393.5,431C 364.662,406.992 335.995,382.825 307.5,358.5C 308.857,356.814 310.19,355.148 311.5,353.5 Z"/></g>
<g><path style="opacity:1" fill="#314444" d="M 1020.5,370.5 C 1025.44,373.107 1026.11,376.274 1022.5,380C 993.833,402 965.167,424 936.5,446C 935.004,446.507 933.837,446.007 933,444.5C 932.365,443.034 931.531,441.7 930.5,440.5C 960.53,417.158 990.53,393.825 1020.5,370.5 Z"/></g>
<g><path style="opacity:1" fill="#314444" d="M 294.5,373.5 C 295.922,373.709 297.255,374.209 298.5,375C 327.552,397.052 356.885,418.719 386.5,440C 387.517,441.049 387.684,442.216 387,443.5C 385.66,444.868 384.326,446.201 383,447.5C 352.212,425.193 321.712,402.526 291.5,379.5C 292.559,377.466 293.559,375.466 294.5,373.5 Z"/></g>
<g><path style="opacity:1" fill="#314545" d="M 878.5,378.5 C 882.167,378.5 885.833,378.5 889.5,378.5C 887.229,382.275 884.395,385.608 881,388.5C 878.704,387.372 876.871,385.705 875.5,383.5C 876.952,382.06 877.952,380.394 878.5,378.5 Z"/></g>
<g><path style="opacity:1" fill="#c8fbc9" d="M 177.5,410.5 C 177.5,412.833 177.5,415.167 177.5,417.5C 191.833,417.5 206.167,417.5 220.5,417.5C 218.307,422.72 215.974,427.886 213.5,433C 199.833,433.333 186.167,433.667 172.5,434C 170.622,435.993 170.288,438.159 171.5,440.5C 181.965,445.735 192.631,450.402 203.5,454.5C 202.073,460.021 199.573,465.021 196,469.5C 169.559,457.363 143.059,445.363 116.5,433.5C 115.386,432.277 115.219,430.944 116,429.5C 120.28,419.33 124.947,409.33 130,399.5C 135.612,391.776 143.112,388.609 152.5,390C 161.344,392.336 168.844,396.836 175,403.5C 176.411,405.65 177.245,407.984 177.5,410.5 Z"/></g>
<g><path style="opacity:1" fill="#c8fbc9" d="M 1159.5,390.5 C 1175.74,388.873 1186.24,395.873 1191,411.5C 1193.52,422.96 1190.02,432.126 1180.5,439C 1178.5,440.333 1176.5,441.667 1174.5,443C 1173.36,443.749 1172.36,443.583 1171.5,442.5C 1169.77,438.047 1167.77,433.714 1165.5,429.5C 1168.48,427.016 1171.32,424.35 1174,421.5C 1175.12,409.626 1169.96,405.46 1158.5,409C 1147.62,414.274 1136.62,419.274 1125.5,424C 1119.46,427.748 1117.96,432.915 1121,439.5C 1122.21,441.049 1123.71,442.215 1125.5,443C 1129.69,443.639 1133.69,443.306 1137.5,442C 1140.09,446.653 1141.92,451.487 1143,456.5C 1122.88,465.439 1109.55,459.439 1103,438.5C 1100.38,426.586 1104.21,417.42 1114.5,411C 1129.35,403.569 1144.35,396.736 1159.5,390.5 Z"/></g>
<g><path style="opacity:1" fill="#314444" d="M 1036.5,391.5 C 1038.27,393.508 1039.93,395.674 1041.5,398C 1010.67,419.58 979.674,440.914 948.5,462C 947.216,462.684 946.049,462.517 945,461.5C 944.15,459.99 943.317,458.49 942.5,457C 942.645,456.228 942.978,455.561 943.5,455C 974.678,433.97 1005.68,412.804 1036.5,391.5 Z"/></g>
<g><path style="opacity:1" fill="#314444" d="M 279.5,395.5 C 312.412,415.298 344.745,436.132 376.5,458C 374.877,460.08 373.377,462.246 372,464.5C 339.647,443.921 307.813,422.755 276.5,401C 277.632,399.235 278.632,397.402 279.5,395.5 Z"/></g>
<g><path style="opacity:1" fill="#317171" d="M 414.5,395.5 C 418.167,395.5 421.833,395.5 425.5,395.5C 435.833,395.5 446.167,395.5 456.5,395.5C 456.5,411.167 456.5,426.833 456.5,442.5C 440.833,442.5 425.167,442.5 409.5,442.5C 409.5,434.167 409.5,425.833 409.5,417.5C 409.5,413.833 409.5,410.167 409.5,406.5C 409.5,402.833 409.5,399.167 409.5,395.5C 411.167,395.5 412.833,395.5 414.5,395.5 Z"/></g>
<g><path style="opacity:1" fill="#317171" d="M 482.5,395.5 C 498.167,395.5 513.833,395.5 529.5,395.5C 529.5,411.167 529.5,426.833 529.5,442.5C 513.833,442.5 498.167,442.5 482.5,442.5C 482.5,426.833 482.5,411.167 482.5,395.5 Z"/></g>
<g><path style="opacity:1" fill="#1e5757" d="M 675.5,396.5 C 660.167,396.5 644.833,396.5 629.5,396.5C 629.5,411.833 629.5,427.167 629.5,442.5C 628.504,427.009 628.17,411.342 628.5,395.5C 644.342,395.17 660.009,395.504 675.5,396.5 Z"/></g>
<g><path style="opacity:1" fill="#317272" d="M 675.5,396.5 C 675.5,411.833 675.5,427.167 675.5,442.5C 660.167,442.5 644.833,442.5 629.5,442.5C 629.5,427.167 629.5,411.833 629.5,396.5C 644.833,396.5 660.167,396.5 675.5,396.5 Z"/></g>
<g><path style="opacity:1" fill="#1a5353" d="M 748.5,396.5 C 733.167,396.5 717.833,396.5 702.5,396.5C 702.5,411.833 702.5,427.167 702.5,442.5C 701.504,427.009 701.17,411.342 701.5,395.5C 717.342,395.17 733.009,395.504 748.5,396.5 Z"/></g>
<g><path style="opacity:1" fill="#317272" d="M 748.5,396.5 C 748.5,411.833 748.5,427.167 748.5,442.5C 733.167,442.5 717.833,442.5 702.5,442.5C 702.5,427.167 702.5,411.833 702.5,396.5C 717.833,396.5 733.167,396.5 748.5,396.5 Z"/></g>
<g><path style="opacity:1" fill="#174e4e" d="M 821.5,396.5 C 806.167,396.5 790.833,396.5 775.5,396.5C 775.5,411.833 775.5,427.167 775.5,442.5C 774.504,427.009 774.17,411.342 774.5,395.5C 790.342,395.17 806.009,395.504 821.5,396.5 Z"/></g>
<g><path style="opacity:1" fill="#317272" d="M 821.5,396.5 C 821.5,411.833 821.5,427.167 821.5,442.5C 806.167,442.5 790.833,442.5 775.5,442.5C 775.5,427.167 775.5,411.833 775.5,396.5C 790.833,396.5 806.167,396.5 821.5,396.5 Z"/></g>
<g><path style="opacity:1" fill="#317272" d="M 891.5,395.5 C 892.5,395.5 893.5,395.5 894.5,395.5C 894.5,397.5 894.5,399.5 894.5,401.5C 894.5,415.167 894.5,428.833 894.5,442.5C 879.167,442.5 863.833,442.5 848.5,442.5C 848.5,426.833 848.5,411.167 848.5,395.5C 862.833,395.5 877.167,395.5 891.5,395.5 Z"/></g>
<g><path style="opacity:1" fill="#063433" d="M 145.5,406.5 C 150.422,407.085 155.089,408.585 159.5,411C 162.809,414.077 163.309,417.577 161,421.5C 158.984,425.531 156.984,429.531 155,433.5C 148.423,430.461 141.923,427.295 135.5,424C 137.977,417.53 141.31,411.697 145.5,406.5 Z"/></g>
<g><path style="opacity:1" fill="#314444" d="M 1049.5,414.5 C 1052.37,415.528 1054.37,417.528 1055.5,420.5C 1022.83,440.167 990.167,459.833 957.5,479.5C 955.24,477.823 953.573,475.657 952.5,473C 984.897,453.474 1017.23,433.974 1049.5,414.5 Z"/></g>
<g><path style="opacity:1" fill="#84b694" d="M 177.5,410.5 C 178.461,412.265 178.795,414.265 178.5,416.5C 192.677,416.171 206.677,416.504 220.5,417.5C 206.167,417.5 191.833,417.5 177.5,417.5C 177.5,415.167 177.5,412.833 177.5,410.5 Z"/></g>
<g><path style="opacity:1" fill="#314444" d="M 265.5,417.5 C 299.104,435.97 332.437,454.97 365.5,474.5C 363.995,480.946 360.662,482.113 355.5,478C 325.996,460.747 296.33,443.747 266.5,427C 264.939,426.059 263.605,424.892 262.5,423.5C 263.513,421.473 264.513,419.473 265.5,417.5 Z"/></g>
<g><path style="opacity:1" fill="#314444" d="M 993.5,483.5 C 990.193,482.949 986.86,482.616 983.5,482.5C 982.432,481.566 981.099,481.232 979.5,481.5C 1007.21,466.496 1035.21,451.83 1063.5,437.5C 1066.12,439.535 1067.12,442.035 1066.5,445C 1041.79,457.353 1017.46,470.186 993.5,483.5 Z"/></g>
<g><path style="opacity:1" fill="#314444" d="M 335.5,481.5 C 329.167,481.5 322.833,481.5 316.5,481.5C 294.228,470.03 271.894,458.53 249.5,447C 250.64,444.542 252.14,442.375 254,440.5C 281.165,454.333 308.332,467.999 335.5,481.5 Z"/></g>
<g><path style="opacity:1" fill="#2b9090" d="M 555.5,395.5 C 571.167,395.5 586.833,395.5 602.5,395.5C 602.5,411.167 602.5,426.833 602.5,442.5C 586.833,442.5 571.167,442.5 555.5,442.5C 555.5,426.833 555.5,411.167 555.5,395.5 Z"/></g>
<g><path style="opacity:1" fill="#38adac" d="M 556.5,396.5 C 571.5,396.5 586.5,396.5 601.5,396.5C 601.5,411.5 601.5,426.5 601.5,441.5C 586.5,441.5 571.5,441.5 556.5,441.5C 556.5,426.5 556.5,411.5 556.5,396.5 Z"/></g>
<g><path style="opacity:1" fill="#c8fbc9" d="M 1202.5,450.5 C 1203.83,450.5 1205.17,450.5 1206.5,450.5C 1207.52,455.071 1208.86,459.571 1210.5,464C 1210.36,464.772 1210.02,465.439 1209.5,466C 1181.65,475.505 1153.82,485.005 1126,494.5C 1123.11,489.363 1121.61,484.03 1121.5,478.5C 1148.6,469.135 1175.6,459.802 1202.5,450.5 Z"/></g>
<g><path style="opacity:1" fill="#c8fbc8" d="M 106.5,454.5 C 135.39,463.908 164.057,473.908 192.5,484.5C 190.901,488.796 189.401,493.129 188,497.5C 186.612,498.554 185.112,498.72 183.5,498C 156.907,488.802 130.241,479.802 103.5,471C 102.941,470.275 102.608,469.442 102.5,468.5C 104.043,463.873 105.376,459.207 106.5,454.5 Z"/></g>
<g><path style="opacity:1" fill="#314545" d="M 1026.5,492.5 C 1021.6,491.201 1016.93,489.534 1012.5,487.5C 1014.2,487.66 1015.87,487.494 1017.5,487C 1035.83,478.667 1054.17,470.333 1072.5,462C 1076.52,461.01 1078.52,462.677 1078.5,467C 1078.36,467.772 1078.02,468.439 1077.5,469C 1060.17,476.335 1043.17,484.168 1026.5,492.5 Z"/></g>
<g><path style="opacity:1" fill="#314444" d="M 281.5,481.5 C 275.642,481.178 269.975,481.511 264.5,482.5C 255.699,478.956 247.032,475.122 238.5,471C 239.565,468.594 240.898,466.427 242.5,464.5C 255.707,469.943 268.707,475.609 281.5,481.5 Z"/></g>
<g><path style="opacity:1" fill="#23dddd" d="M 492.5,482.5 C 548.259,482.768 579.759,510.435 587,565.5C 587.5,573.159 587.666,580.826 587.5,588.5C 560.5,588.5 533.5,588.5 506.5,588.5C 509.207,575.734 504.54,567.234 492.5,563C 443.501,562.5 394.501,562.333 345.5,562.5C 345.5,577.167 345.5,591.833 345.5,606.5C 318.833,606.5 292.167,606.5 265.5,606.5C 265.5,565.167 265.5,523.833 265.5,482.5C 341.167,482.5 416.833,482.5 492.5,482.5 Z"/></g>
<g><path style="opacity:1" fill="#18a2a2" d="M 708.5,482.5 C 681.833,482.5 655.167,482.5 628.5,482.5C 628.5,527.167 628.5,571.833 628.5,616.5C 627.501,571.67 627.168,526.67 627.5,481.5C 654.672,481.169 681.672,481.502 708.5,482.5 Z"/></g>
<g><path style="opacity:1" fill="#179c9c" d="M 979.5,481.5 C 981.099,481.232 982.432,481.566 983.5,482.5C 905.5,482.5 827.5,482.5 749.5,482.5C 749.5,523.833 749.5,565.167 749.5,606.5C 776.167,606.5 802.833,606.5 829.5,606.5C 802.672,607.498 775.672,607.831 748.5,607.5C 748.5,565.5 748.5,523.5 748.5,481.5C 825.5,481.5 902.5,481.5 979.5,481.5 Z"/></g>
<g><path style="opacity:1" fill="#23dddd" d="M 983.5,482.5 C 986.86,482.616 990.193,482.949 993.5,483.5C 999.833,484.833 1006.17,486.167 1012.5,487.5C 1016.93,489.534 1021.6,491.201 1026.5,492.5C 1031.13,495.486 1035.8,498.486 1040.5,501.5C 1042.89,504.554 1045.55,507.221 1048.5,509.5C 1051.5,513.5 1054.5,517.5 1057.5,521.5C 1058.6,524.032 1059.93,526.365 1061.5,528.5C 1063.45,533.406 1065.12,538.406 1066.5,543.5C 1067.63,546.551 1068.63,549.551 1069.5,552.5C 1069.85,557.68 1070.51,562.68 1071.5,567.5C 1071.5,570.5 1071.5,573.5 1071.5,576.5C 1071.5,580.5 1071.5,584.5 1071.5,588.5C 1044.5,588.5 1017.5,588.5 990.5,588.5C 993.207,575.734 988.54,567.234 976.5,563C 927.501,562.5 878.501,562.333 829.5,562.5C 829.5,577.167 829.5,591.833 829.5,606.5C 802.833,606.5 776.167,606.5 749.5,606.5C 749.5,565.167 749.5,523.833 749.5,482.5C 827.5,482.5 905.5,482.5 983.5,482.5 Z"/></g>
<g><path style="opacity:1" fill="#314545" d="M 1048.5,509.5 C 1045.55,507.221 1042.89,504.554 1040.5,501.5C 1055.47,496.675 1070.3,491.342 1085,485.5C 1087.76,487.481 1088.59,489.981 1087.5,493C 1076.24,497.53 1064.91,501.863 1053.5,506C 1051.24,506.549 1049.57,507.716 1048.5,509.5 Z"/></g>
<g><path style="opacity:1" fill="#314444" d="M 264.5,500.5 C 264.5,503.167 264.5,505.833 264.5,508.5C 254.09,505.308 243.757,501.808 233.5,498C 228.796,495.757 228.296,492.59 232,488.5C 242.807,492.602 253.64,496.602 264.5,500.5 Z"/></g>
<g><path style="opacity:1" fill="#c7fac8" d="M 106.5,495.5 C 127.046,496.98 147.046,501.147 166.5,508C 173.674,512.509 177.674,519.009 178.5,527.5C 176.577,539.595 174.244,551.595 171.5,563.5C 142.157,557.539 112.99,550.872 84,543.5C 85.2537,532.665 87.587,521.998 91,511.5C 92.497,507.835 94.497,504.502 97,501.5C 100.18,499.338 103.346,497.338 106.5,495.5 Z"/></g>
<g><path style="opacity:1" fill="#c8fbc9" d="M 1128.5,500.5 C 1160.15,503.041 1191.82,505.374 1223.5,507.5C 1224,510.521 1224.67,513.521 1225.5,516.5C 1225.17,517.167 1224.83,517.833 1224.5,518.5C 1197.75,534.293 1170.92,549.959 1144,565.5C 1142.73,560.876 1141.56,556.209 1140.5,551.5C 1140.83,550.5 1141.17,549.5 1141.5,548.5C 1144.67,546.413 1148.01,544.579 1151.5,543C 1152.06,542.275 1152.39,541.442 1152.5,540.5C 1151,533.494 1149.5,526.494 1148,519.5C 1143.1,517.904 1137.93,516.904 1132.5,516.5C 1131.17,511.154 1129.83,505.82 1128.5,500.5 Z"/></g>
<g><path style="opacity:1" fill="#314444" d="M 1061.5,528.5 C 1059.93,526.365 1058.6,524.032 1057.5,521.5C 1069.35,517.94 1081.18,514.273 1093,510.5C 1096.07,512.135 1097.57,514.801 1097.5,518.5C 1085.46,521.625 1073.46,524.958 1061.5,528.5 Z"/></g>
<g><path style="opacity:1" fill="#043232" d="M 110.5,512.5 C 126.85,514.392 142.85,517.892 158.5,523C 161.18,525.363 162.513,528.363 162.5,532C 161.294,535.728 160.461,539.561 160,543.5C 159.439,544.022 158.772,544.355 158,544.5C 139.812,540.219 121.646,535.886 103.5,531.5C 102.986,527.496 103.486,523.496 105,519.5C 105.967,516.379 107.8,514.046 110.5,512.5 Z"/></g>
<g><path style="opacity:1" fill="#314444" d="M 264.5,525.5 C 264.5,528.5 264.5,531.5 264.5,534.5C 249.622,530.429 234.956,525.763 220.5,520.5C 221.308,518.075 222.308,515.742 223.5,513.5C 237.061,517.91 250.728,521.91 264.5,525.5 Z"/></g>
<g><path style="opacity:1" fill="#063433" d="M 1177.5,518.5 C 1182.83,519.167 1188.17,519.833 1193.5,520.5C 1184.62,524.707 1175.95,529.374 1167.5,534.5C 1165.7,529.624 1164.36,524.624 1163.5,519.5C 1168.12,518.507 1172.79,518.173 1177.5,518.5 Z"/></g>
<g><path style="opacity:1" fill="#74a488" d="M 1177.5,518.5 C 1183.21,518.171 1188.87,518.505 1194.5,519.5C 1194.38,520.107 1194.04,520.44 1193.5,520.5C 1188.17,519.833 1182.83,519.167 1177.5,518.5 Z"/></g>
<g><path style="opacity:1" fill="#314444" d="M 1069.5,552.5 C 1068.63,549.551 1067.63,546.551 1066.5,543.5C 1078.33,541.6 1090,538.934 1101.5,535.5C 1103.07,537.971 1104.07,540.637 1104.5,543.5C 1092.68,546.268 1081.01,549.268 1069.5,552.5 Z"/></g>
<g><path style="opacity:1" fill="#314444" d="M 264.5,550.5 C 264.5,553.167 264.5,555.833 264.5,558.5C 247.905,554.518 231.238,550.851 214.5,547.5C 214.833,544.833 215.167,542.167 215.5,539.5C 231.978,542.634 248.311,546.3 264.5,550.5 Z"/></g>
<g><path style="opacity:1" fill="#1c9e9e" d="M 281.5,481.5 C 293.167,481.5 304.833,481.5 316.5,481.5C 322.833,481.5 329.167,481.5 335.5,481.5C 388.003,481.168 440.336,481.501 492.5,482.5C 416.833,482.5 341.167,482.5 265.5,482.5C 265.5,523.833 265.5,565.167 265.5,606.5C 292.167,606.5 318.833,606.5 345.5,606.5C 337.016,607.493 328.349,607.826 319.5,607.5C 307.5,607.5 295.5,607.5 283.5,607.5C 276.745,608.123 270.412,607.456 264.5,605.5C 264.5,602.833 264.5,600.167 264.5,597.5C 264.5,592.5 264.5,587.5 264.5,582.5C 264.5,579.5 264.5,576.5 264.5,573.5C 264.5,568.5 264.5,563.5 264.5,558.5C 264.5,555.833 264.5,553.167 264.5,550.5C 264.5,545.167 264.5,539.833 264.5,534.5C 264.5,531.5 264.5,528.5 264.5,525.5C 264.5,519.833 264.5,514.167 264.5,508.5C 264.5,505.833 264.5,503.167 264.5,500.5C 264.5,494.5 264.5,488.5 264.5,482.5C 269.975,481.511 275.642,481.178 281.5,481.5 Z"/></g>
<g><path style="opacity:1" fill="#324444" d="M 1071.5,576.5 C 1071.5,573.5 1071.5,570.5 1071.5,567.5C 1083.09,566.083 1094.59,564.083 1106,561.5C 1107.33,561.755 1108.33,562.422 1109,563.5C 1109.5,565.473 1109.66,567.473 1109.5,569.5C 1096.73,571.32 1084.07,573.654 1071.5,576.5 Z"/></g>
<g><path style="opacity:1" fill="#314444" d="M 264.5,573.5 C 264.5,576.5 264.5,579.5 264.5,582.5C 246.418,579.875 228.418,576.708 210.5,573C 209.167,570.667 209.167,568.333 210.5,566C 211.667,565.833 212.833,565.667 214,565.5C 230.715,568.98 247.548,571.647 264.5,573.5 Z"/></g>
<g><path style="opacity:1" fill="#32c997" d="M 370.5,628.5 C 335.5,628.5 300.5,628.5 265.5,628.5C 265.5,624.167 265.5,619.833 265.5,615.5C 298.84,615.833 332.173,615.5 365.5,614.5C 373.986,605.514 382.652,596.681 391.5,588C 406.178,587.833 420.845,587.333 435.5,586.5C 441.627,577.77 449.294,576.27 458.5,582C 463.691,587.69 464.858,594.19 462,601.5C 455.06,610.639 446.893,611.806 437.5,605C 436.833,604 436.167,603 435.5,602C 422.833,601.333 410.167,601.333 397.5,602C 388.632,611.036 379.632,619.869 370.5,628.5 Z"/></g>
<g><path style="opacity:1" fill="#31c896" d="M 681.5,578.5 C 688.675,577.757 694.342,580.257 698.5,586C 705.167,586.333 711.833,586.667 718.5,587C 727.833,596.333 737.167,605.667 746.5,615C 782.505,615.833 818.505,615.667 854.5,614.5C 862.986,605.514 871.652,596.681 880.5,588C 894.833,587.667 909.167,587.333 923.5,587C 929.786,577.707 937.786,576.041 947.5,582C 953.59,589.079 954.09,596.579 949,604.5C 939.821,611.913 931.654,611.08 924.5,602C 911.833,601.333 899.167,601.333 886.5,602C 877.5,611 868.5,620 859.5,629C 819.833,629.667 780.167,629.667 740.5,629C 731.5,620 722.5,611 713.5,602C 708.5,601.333 703.5,601.333 698.5,602C 692.083,610.262 684.417,611.595 675.5,606C 670.911,601.034 669.411,595.2 671,588.5C 673.106,583.557 676.606,580.224 681.5,578.5 Z"/></g>
<g><path style="opacity:1" fill="#314444" d="M 1071.5,600.5 C 1071.5,599.167 1071.5,597.833 1071.5,596.5C 1063.17,596.5 1054.83,596.5 1046.5,596.5C 1068.65,593.146 1090.98,590.146 1113.5,587.5C 1113.5,590.167 1113.5,592.833 1113.5,595.5C 1099.48,596.979 1085.48,598.646 1071.5,600.5 Z"/></g>
<g><path style="opacity:1" fill="#033634" d="M 446.5,588.5 C 453.968,589.674 455.301,593.174 450.5,599C 445.178,599.34 443.011,596.84 444,591.5C 445.045,590.627 445.878,589.627 446.5,588.5 Z"/></g>
<g><path style="opacity:1" fill="#033634" d="M 683.5,588.5 C 690.968,589.674 692.301,593.174 687.5,599C 682.178,599.34 680.011,596.84 681,591.5C 682.045,590.627 682.878,589.627 683.5,588.5 Z"/></g>
<g><path style="opacity:1" fill="#033634" d="M 935.5,588.5 C 942.968,589.674 944.301,593.174 939.5,599C 934.178,599.34 932.011,596.84 933,591.5C 934.045,590.627 934.878,589.627 935.5,588.5 Z"/></g>
<g><path style="opacity:1" fill="#314444" d="M 264.5,597.5 C 264.5,600.167 264.5,602.833 264.5,605.5C 244.837,603.5 225.17,601.5 205.5,599.5C 205.5,596.833 205.5,594.167 205.5,591.5C 225.163,593.5 244.829,595.5 264.5,597.5 Z"/></g>
<g><path style="opacity:1" fill="#32c997" d="M 491.5,596.5 C 526.502,596.333 561.502,596.5 596.5,597C 605.5,606 614.5,615 623.5,624C 630.524,624.831 637.524,624.664 644.5,623.5C 650.504,616.029 657.837,614.529 666.5,619C 674.432,627.302 674.432,635.635 666.5,644C 657.353,648.633 649.687,646.966 643.5,639C 634.833,638.667 626.167,638.333 617.5,638C 608.5,629 599.5,620 590.5,611C 559.5,610.333 528.5,610.333 497.5,611C 488.5,620 479.5,629 470.5,638C 456.167,638.333 441.833,638.667 427.5,639C 423.021,646.037 416.687,648.37 408.5,646C 398.988,640.815 396.488,633.315 401,623.5C 407.716,615.541 415.549,614.375 424.5,620C 425.743,621.154 426.743,622.488 427.5,624C 439.833,624.667 452.167,624.667 464.5,624C 473.702,614.965 482.702,605.798 491.5,596.5 Z"/></g>
<g><path style="opacity:1" fill="#32c997" d="M 1046.5,596.5 C 1054.83,596.5 1063.17,596.5 1071.5,596.5C 1071.5,597.833 1071.5,599.167 1071.5,600.5C 1071.5,603.833 1071.5,607.167 1071.5,610.5C 1043.16,610.333 1014.83,610.5 986.5,611C 977.5,620 968.5,629 959.5,638C 945.167,638.333 930.833,638.667 916.5,639C 908.262,649.7 899.429,650.2 890,640.5C 885.172,630.323 887.672,622.49 897.5,617C 905.39,615.112 911.723,617.445 916.5,624C 928.833,624.667 941.167,624.667 953.5,624C 962.5,615 971.5,606 980.5,597C 1002.5,596.5 1024.5,596.333 1046.5,596.5 Z"/></g>
<g><path style="opacity:1" fill="#304343" d="M 283.5,607.5 C 295.5,607.5 307.5,607.5 319.5,607.5C 319.5,609.167 319.5,610.833 319.5,612.5C 307.337,611 295.337,609.333 283.5,607.5 Z"/></g>
<g><path style="opacity:1" fill="#23dddd" d="M 708.5,482.5 C 708.5,514.833 708.5,547.167 708.5,579.5C 704.719,580.211 701.719,579.045 699.5,576C 684.478,567.566 672.644,570.733 664,585.5C 660.207,599.794 665.04,609.961 678.5,616C 687.931,618.298 695.931,615.965 702.5,609C 704.473,608.505 706.473,608.338 708.5,608.5C 708.5,624.167 708.5,639.833 708.5,655.5C 707.127,655.657 705.793,655.49 704.5,655C 697.13,647.548 688.463,645.548 678.5,649C 667.659,654.513 662.992,663.347 664.5,675.5C 645.356,675.143 636.19,684.476 637,703.5C 642.747,718.955 653.581,724.122 669.5,719C 671.792,717.71 673.792,716.043 675.5,714C 686.495,713.5 697.495,713.333 708.5,713.5C 708.5,743.833 708.5,774.167 708.5,804.5C 681.833,804.5 655.167,804.5 628.5,804.5C 628.5,752.167 628.5,699.833 628.5,647.5C 632.5,647.5 636.5,647.5 640.5,647.5C 652.279,657.106 663.779,656.773 675,646.5C 684.83,629.323 680.663,616.823 662.5,609C 653.94,607.52 646.607,609.853 640.5,616C 636.514,616.499 632.514,616.666 628.5,616.5C 628.5,571.833 628.5,527.167 628.5,482.5C 655.167,482.5 681.833,482.5 708.5,482.5 Z"/></g>
<g><path style="opacity:1" fill="#314444" d="M 1071.5,624.5 C 1071.5,622.5 1071.5,620.5 1071.5,618.5C 1066.83,618.5 1062.17,618.5 1057.5,618.5C 1076.62,616.084 1095.95,614.418 1115.5,613.5C 1115.83,616.167 1116.17,618.833 1116.5,621.5C 1101.52,622.79 1086.52,623.79 1071.5,624.5 Z"/></g>
<g><path style="opacity:1" fill="#324444" d="M 264.5,620.5 C 264.5,623.167 264.5,625.833 264.5,628.5C 244.172,627.461 223.839,626.461 203.5,625.5C 203.5,622.833 203.5,620.167 203.5,617.5C 223.819,618.774 244.152,619.774 264.5,620.5 Z"/></g>
<g><path style="opacity:1" fill="#23dddd" d="M 487.5,804.5 C 413.167,804.5 338.833,804.5 264.5,804.5C 264.5,798.5 264.5,792.5 264.5,786.5C 264.5,783.833 264.5,781.167 264.5,778.5C 264.5,772.833 264.5,767.167 264.5,761.5C 264.5,758.833 264.5,756.167 264.5,753.5C 264.5,748.167 264.5,742.833 264.5,737.5C 264.5,734.833 264.5,732.167 264.5,729.5C 264.5,724.167 264.5,718.833 264.5,713.5C 264.5,710.833 264.5,708.167 264.5,705.5C 264.5,700.5 264.5,695.5 264.5,690.5C 264.5,688.833 264.5,687.167 264.5,685.5C 291.5,685.5 318.5,685.5 345.5,685.5C 345.5,698.167 345.5,710.833 345.5,723.5C 394.834,723.667 444.168,723.5 493.5,723C 499.874,721.628 504.041,717.795 506,711.5C 506.5,680.502 506.667,649.502 506.5,618.5C 533.5,618.5 560.5,618.5 587.5,618.5C 587.926,655.189 587.426,691.855 586,728.5C 579.042,771.791 553.875,796.625 510.5,803C 502.881,804.205 495.214,804.705 487.5,804.5 Z"/></g>
<g><path style="opacity:1" fill="#23dddd" d="M 1057.5,618.5 C 1062.17,618.5 1066.83,618.5 1071.5,618.5C 1071.5,620.5 1071.5,622.5 1071.5,624.5C 1071.5,629.833 1071.5,635.167 1071.5,640.5C 1071.5,643.167 1071.5,645.833 1071.5,648.5C 1071.5,653.833 1071.5,659.167 1071.5,664.5C 1071.5,667.167 1071.5,669.833 1071.5,672.5C 1071.5,677.833 1071.5,683.167 1071.5,688.5C 1071.5,691.167 1071.5,693.833 1071.5,696.5C 1071.5,702.167 1071.5,707.833 1071.5,713.5C 1070.91,716.127 1070.58,718.794 1070.5,721.5C 1069.75,726.485 1069.09,731.485 1068.5,736.5C 1067.83,739.167 1067.17,741.833 1066.5,744.5C 1064.52,749.418 1062.52,754.418 1060.5,759.5C 1059.15,762.193 1057.82,764.86 1056.5,767.5C 1053.75,771.311 1050.75,774.978 1047.5,778.5C 1044.47,781.195 1041.47,783.862 1038.5,786.5C 1033.49,790.007 1028.16,793.007 1022.5,795.5C 1017.74,797.226 1013.08,798.893 1008.5,800.5C 1002.54,801.715 996.54,802.715 990.5,803.5C 909.847,804.48 829.18,804.813 748.5,804.5C 748.5,764.833 748.5,725.167 748.5,685.5C 775.5,685.5 802.5,685.5 829.5,685.5C 829.5,698.167 829.5,710.833 829.5,723.5C 878.834,723.667 928.168,723.5 977.5,723C 984.756,721.409 988.923,716.909 990,709.5C 990.5,679.168 990.667,648.835 990.5,618.5C 1012.83,618.5 1035.17,618.5 1057.5,618.5 Z"/></g>
<g><path style="opacity:1" fill="#023432" d="M 411.5,626.5 C 418.745,626.555 420.745,629.722 417.5,636C 409.424,636.805 407.424,633.638 411.5,626.5 Z"/></g>
<g><path style="opacity:1" fill="#023332" d="M 654.5,626.5 C 661.745,626.555 663.745,629.722 660.5,636C 652.424,636.805 650.424,633.638 654.5,626.5 Z"/></g>
<g><path style="opacity:1" fill="#043936" d="M 900.5,626.5 C 907.524,626.489 909.524,629.489 906.5,635.5C 901.702,637.782 898.702,636.449 897.5,631.5C 898.092,629.577 899.092,627.911 900.5,626.5 Z"/></g>
<g><path style="opacity:1" fill="#2d9b79" d="M 265.5,615.5 C 265.5,619.833 265.5,624.167 265.5,628.5C 300.5,628.5 335.5,628.5 370.5,628.5C 335.167,629.833 299.833,629.833 264.5,628.5C 264.5,625.833 264.5,623.167 264.5,620.5C 264.216,618.585 264.549,616.919 265.5,615.5 Z"/></g>
<g><path style="opacity:1" fill="#32ca97" d="M 265.5,639.5 C 302.168,639.333 338.835,639.5 375.5,640C 383.167,647.667 390.833,655.333 398.5,663C 420.833,663.667 443.167,663.667 465.5,663C 474.537,652.052 483.704,651.885 493,662.5C 497.039,678.457 490.873,685.957 474.5,685C 471.084,683.75 468.417,681.583 466.5,678.5C 441.84,677.667 417.173,677.167 392.5,677C 384.631,669.298 376.964,661.465 369.5,653.5C 335.004,652.502 300.337,652.168 265.5,652.5C 265.5,648.167 265.5,643.833 265.5,639.5 Z"/></g>
<g><path style="opacity:1" fill="#32c997" d="M 734.5,639.5 C 777.835,639.333 821.168,639.5 864.5,640C 872.167,647.667 879.833,655.333 887.5,663C 909.833,663.667 932.167,663.667 954.5,663C 958.979,655.963 965.313,653.63 973.5,656C 983.728,661.266 986.228,669.099 981,679.5C 974.709,685.904 967.542,687.07 959.5,683C 957.981,681.649 956.648,680.149 955.5,678.5C 930.84,677.667 906.173,677.167 881.5,677C 873.833,669.333 866.167,661.667 858.5,654C 819.167,653.333 779.833,653.333 740.5,654C 732.833,661.667 725.167,669.333 717.5,677C 711.833,677.333 706.167,677.667 700.5,678C 696.309,684.755 690.309,687.089 682.5,685C 670.607,678.563 668.607,669.896 676.5,659C 681.324,655.676 686.657,654.676 692.5,656C 695.916,657.25 698.583,659.417 700.5,662.5C 704.122,663.659 707.789,663.825 711.5,663C 719.369,655.298 727.036,647.465 734.5,639.5 Z"/></g>
<g><path style="opacity:1" fill="#304343" d="M 1071.5,648.5 C 1071.5,645.833 1071.5,643.167 1071.5,640.5C 1086.83,640.013 1102.16,639.68 1117.5,639.5C 1117.5,642.5 1117.5,645.5 1117.5,648.5C 1102.17,648.5 1086.83,648.5 1071.5,648.5 Z"/></g>
<g><path style="opacity:1" fill="#324444" d="M 264.5,643.5 C 264.5,646.167 264.5,648.833 264.5,651.5C 243.833,651.5 223.167,651.5 202.5,651.5C 202.5,648.833 202.5,646.167 202.5,643.5C 223.167,643.5 243.833,643.5 264.5,643.5 Z"/></g>
<g><path style="opacity:1" fill="#1aaeae" d="M 640.5,647.5 C 636.5,647.5 632.5,647.5 628.5,647.5C 628.5,699.833 628.5,752.167 628.5,804.5C 627.501,752.003 627.168,699.336 627.5,646.5C 632.032,646.182 636.366,646.515 640.5,647.5 Z"/></g>
<g><path style="opacity:1" fill="#269f7b" d="M 265.5,639.5 C 265.5,643.833 265.5,648.167 265.5,652.5C 300.337,652.168 335.004,652.502 369.5,653.5C 334.151,654.16 299.151,653.493 264.5,651.5C 264.5,648.833 264.5,646.167 264.5,643.5C 264.232,641.901 264.566,640.568 265.5,639.5 Z"/></g>
<g><path style="opacity:1" fill="#304544" d="M 349.5,663.5 C 321.5,663.5 293.5,663.5 265.5,663.5C 264.566,664.568 264.232,665.901 264.5,667.5C 243.848,668.566 223.181,669.233 202.5,669.5C 202.5,666.833 202.5,664.167 202.5,661.5C 240.837,660.282 279.17,658.949 317.5,657.5C 317.5,659.167 317.5,660.833 317.5,662.5C 328.346,662.172 339.013,662.506 349.5,663.5 Z"/></g>
<g><path style="opacity:1" fill="#32ca97" d="M 265.5,663.5 C 293.5,663.5 321.5,663.5 349.5,663.5C 358.965,672.464 368.298,681.631 377.5,691C 396.842,691.833 416.175,691.666 435.5,690.5C 441.115,683.96 447.782,682.794 455.5,687C 463.413,694.633 463.413,702.3 455.5,710C 447.782,714.206 441.115,713.04 435.5,706.5C 414.174,705.667 392.841,705.167 371.5,705C 362.298,695.631 352.965,686.464 343.5,677.5C 317.672,676.502 291.672,676.169 265.5,676.5C 265.5,672.167 265.5,667.833 265.5,663.5 Z"/></g>
<g><path style="opacity:1" fill="#32ca97" d="M 739.5,663.5 C 772.502,663.333 805.502,663.5 838.5,664C 847.5,673 856.5,682 865.5,691C 884.833,691.667 904.167,691.667 923.5,691C 931.486,682.518 939.652,682.351 948,690.5C 952.926,702.98 948.759,710.314 935.5,712.5C 930.519,712.176 926.519,710.009 923.5,706C 902.5,705.667 881.5,705.333 860.5,705C 851.5,696 842.5,687 833.5,678C 803.833,677.333 774.167,677.333 744.5,678C 735.652,686.681 726.986,695.514 718.5,704.5C 703.178,705.333 687.844,705.833 672.5,706C 668.021,713.037 661.687,715.37 653.5,713C 644.184,707.72 641.684,700.22 646,690.5C 652.126,682.99 659.626,681.49 668.5,686C 670.213,687.378 671.547,689.045 672.5,691C 685.833,691.667 699.167,691.667 712.5,691C 721.702,681.965 730.702,672.798 739.5,663.5 Z"/></g>
<g><path style="opacity:1" fill="#314444" d="M 1071.5,664.5 C 1086.49,665.199 1101.49,665.532 1116.5,665.5C 1116.5,668.5 1116.5,671.5 1116.5,674.5C 1101.51,673.705 1086.51,673.039 1071.5,672.5C 1071.5,669.833 1071.5,667.167 1071.5,664.5 Z"/></g>
<g><path style="opacity:1" fill="#023433" d="M 476.5,665.5 C 484.219,664.87 486.219,667.87 482.5,674.5C 477.66,676.772 474.993,675.272 474.5,670C 474.519,668.167 475.185,666.667 476.5,665.5 Z"/></g>
<g><path style="opacity:1" fill="#033433" d="M 684.5,665.5 C 692.877,665.274 694.544,668.441 689.5,675C 683.498,675.993 681.332,673.493 683,667.5C 683.717,666.956 684.217,666.289 684.5,665.5 Z"/></g>
<g><path style="opacity:1" fill="#033433" d="M 965.5,665.5 C 973.877,665.274 975.544,668.441 970.5,675C 964.498,675.993 962.332,673.493 964,667.5C 964.717,666.956 965.217,666.289 965.5,665.5 Z"/></g>
<g><path style="opacity:1" fill="#28a880" d="M 265.5,663.5 C 265.5,667.833 265.5,672.167 265.5,676.5C 291.672,676.169 317.672,676.502 343.5,677.5C 335.167,677.5 326.833,677.5 318.5,677.5C 315.167,677.5 311.833,677.5 308.5,677.5C 293.833,677.5 279.167,677.5 264.5,677.5C 264.5,674.167 264.5,670.833 264.5,667.5C 264.232,665.901 264.566,664.568 265.5,663.5 Z"/></g>
<g><path style="opacity:1" fill="#314646" d="M 308.5,677.5 C 311.833,677.5 315.167,677.5 318.5,677.5C 318.5,679.833 318.5,682.167 318.5,684.5C 327.682,684.173 336.682,684.507 345.5,685.5C 318.5,685.5 291.5,685.5 264.5,685.5C 264.5,687.167 264.5,688.833 264.5,690.5C 244.51,692.356 224.51,694.023 204.5,695.5C 203.908,692.873 203.575,690.206 203.5,687.5C 238.718,684.973 273.718,681.64 308.5,677.5 Z"/></g>
<g><path style="opacity:1" fill="#324444" d="M 1071.5,688.5 C 1085.83,689.888 1100.16,691.222 1114.5,692.5C 1114.5,695.167 1114.5,697.833 1114.5,700.5C 1100.09,699.879 1085.76,698.546 1071.5,696.5C 1071.5,693.833 1071.5,691.167 1071.5,688.5 Z"/></g>
<g><path style="opacity:1" fill="#023332" d="M 656.5,693.5 C 663.842,693.207 665.842,696.207 662.5,702.5C 654.415,703.86 652.415,700.86 656.5,693.5 Z"/></g>
<g><path style="opacity:1" fill="#043936" d="M 444.5,693.5 C 451.628,693.706 453.294,696.873 449.5,703C 444.967,704.471 442.633,702.804 442.5,698C 442.519,696.167 443.185,694.667 444.5,693.5 Z"/></g>
<g><path style="opacity:1" fill="#043936" d="M 933.5,693.5 C 939.989,693.156 941.989,695.99 939.5,702C 933.074,704.58 930.574,702.414 932,695.5C 932.717,694.956 933.217,694.289 933.5,693.5 Z"/></g>
<g><path style="opacity:1" fill="#314444" d="M 264.5,705.5 C 264.5,708.167 264.5,710.833 264.5,713.5C 245.455,716.221 226.455,719.221 207.5,722.5C 207.173,719.518 207.173,716.685 207.5,714C 226.501,711.099 245.501,708.266 264.5,705.5 Z"/></g>
<g><path style="opacity:1" fill="#314545" d="M 1071.5,713.5 C 1084.83,715.167 1098.17,716.833 1111.5,718.5C 1111.17,721.167 1110.83,723.833 1110.5,726.5C 1097.17,724.833 1083.83,723.167 1070.5,721.5C 1070.58,718.794 1070.91,716.127 1071.5,713.5 Z"/></g>
<g><path style="opacity:1" fill="#314444" d="M 264.5,729.5 C 264.5,732.167 264.5,734.833 264.5,737.5C 247.401,740.691 230.401,744.358 213.5,748.5C 211.522,745.8 211.189,742.967 212.5,740C 229.795,736.174 247.128,732.674 264.5,729.5 Z"/></g>
<g><path style="opacity:1" fill="#324444" d="M 1068.5,736.5 C 1081.01,739.793 1093.68,742.46 1106.5,744.5C 1106.42,747.206 1106.09,749.873 1105.5,752.5C 1092.41,750.152 1079.41,747.485 1066.5,744.5C 1067.17,741.833 1067.83,739.167 1068.5,736.5 Z"/></g>
<g><path style="opacity:1" fill="#314444" d="M 264.5,753.5 C 264.5,756.167 264.5,758.833 264.5,761.5C 249.996,765.418 235.496,769.418 221,773.5C 218.931,772.368 217.765,770.535 217.5,768C 217.82,766.347 218.82,765.347 220.5,765C 235.106,760.849 249.773,757.015 264.5,753.5 Z"/></g>
<g><path style="opacity:1" fill="#314444" d="M 1060.5,759.5 C 1073.05,763.291 1085.71,766.791 1098.5,770C 1099.43,770.388 1100.09,771.055 1100.5,772C 1099.71,774.099 1099.38,776.266 1099.5,778.5C 1085.27,774.454 1070.94,770.787 1056.5,767.5C 1057.82,764.86 1059.15,762.193 1060.5,759.5 Z"/></g>
<g><path style="opacity:1" fill="#314444" d="M 264.5,778.5 C 264.5,781.167 264.5,783.833 264.5,786.5C 252.115,790.629 239.781,794.962 227.5,799.5C 226.574,796.956 225.574,794.456 224.5,792C 237.576,786.808 250.909,782.308 264.5,778.5 Z"/></g>
<g><path style="opacity:1" fill="#314444" d="M 1047.5,778.5 C 1047.41,779.496 1047.75,780.329 1048.5,781C 1062.87,785.735 1077.2,790.568 1091.5,795.5C 1092.56,798.116 1092.23,800.616 1090.5,803C 1073.14,797.827 1055.81,792.327 1038.5,786.5C 1041.47,783.862 1044.47,781.195 1047.5,778.5 Z"/></g>
<g><path style="opacity:1" fill="#314444" d="M 1022.5,795.5 C 1042.3,803.89 1062.3,812.057 1082.5,820C 1083.28,823.013 1082.61,825.846 1080.5,828.5C 1056.88,818.017 1032.88,808.684 1008.5,800.5C 1013.08,798.893 1017.74,797.226 1022.5,795.5 Z"/></g>
<g><path style="opacity:1" fill="#314444" d="M 264.5,804.5 C 269.64,805.488 274.974,805.821 280.5,805.5C 266.556,811.767 252.39,817.767 238,823.5C 236.347,823.18 235.347,822.18 235,820.5C 234.691,819.234 234.191,818.067 233.5,817C 243.556,812.148 253.889,807.981 264.5,804.5 Z"/></g>
<g><path style="opacity:1" fill="#2d4646" d="M 990.5,803.5 C 990.414,804.496 990.748,805.329 991.5,806C 1018.99,818.91 1046.32,832.077 1073.5,845.5C 1072.42,847.996 1071.09,850.33 1069.5,852.5C 1037.2,837.016 1004.86,821.516 972.5,806C 897.666,805.833 822.999,805.333 748.5,804.5C 829.18,804.813 909.847,804.48 990.5,803.5 Z"/></g>
<g><path style="opacity:1" fill="#2d4747" d="M 264.5,804.5 C 338.833,804.5 413.167,804.5 487.5,804.5C 437.002,805.333 386.335,805.833 335.5,806C 306.394,819.97 277.227,833.803 248,847.5C 245.245,845.519 244.412,843.019 245.5,840C 269.288,828.939 292.955,817.606 316.5,806C 304.505,805.5 292.505,805.333 280.5,805.5C 274.974,805.821 269.64,805.488 264.5,804.5 Z"/></g>
<g><path style="opacity:1" fill="#314444" d="M 354.5,809.5 C 357.068,810.574 358.735,812.574 359.5,815.5C 359.023,816.478 358.357,817.311 357.5,818C 324.96,836.034 292.293,853.868 259.5,871.5C 258.041,869.417 256.708,867.25 255.5,865C 288.562,846.472 321.562,827.972 354.5,809.5 Z"/></g>
<g><path style="opacity:1" fill="#314444" d="M 960.5,813.5 C 994.461,831.48 1028.13,849.98 1061.5,869C 1060.29,871.25 1058.96,873.417 1057.5,875.5C 1023.66,857.748 990.322,839.248 957.5,820C 958.377,817.747 959.377,815.581 960.5,813.5 Z"/></g>
<g><path style="opacity:1" fill="#314444" d="M 364.5,826.5 C 367.026,827.876 368.692,830.042 369.5,833C 337.617,853.863 305.45,874.363 273,894.5C 271.5,892.333 270,890.167 268.5,888C 300.734,867.725 332.734,847.225 364.5,826.5 Z"/></g>
<g><path style="opacity:1" fill="#314444" d="M 950.5,830.5 C 983.272,850.465 1015.61,870.965 1047.5,892C 1046.72,894.39 1045.56,896.557 1044,898.5C 1011.42,878.125 978.916,857.625 946.5,837C 948.058,834.948 949.392,832.781 950.5,830.5 Z"/></g>
<g><path style="opacity:1" fill="#314444" d="M 375.5,843.5 C 377.951,845.123 379.951,847.289 381.5,850C 350.07,871.798 318.903,893.965 288,916.5C 285.336,914.203 284.169,911.537 284.5,908.5C 315.076,887.057 345.41,865.39 375.5,843.5 Z"/></g>
<g><path style="opacity:1" fill="#317171" d="M 418.5,892.5 C 415.833,892.5 413.167,892.5 410.5,892.5C 409.504,877.009 409.17,861.342 409.5,845.5C 425.167,845.5 440.833,845.5 456.5,845.5C 456.5,861.167 456.5,876.833 456.5,892.5C 443.833,892.5 431.167,892.5 418.5,892.5 Z"/></g>
<g><path style="opacity:1" fill="#225d5d" d="M 528.5,892.5 C 528.5,877.167 528.5,861.833 528.5,846.5C 513.5,846.5 498.5,846.5 483.5,846.5C 483.5,861.833 483.5,877.167 483.5,892.5C 482.504,877.009 482.17,861.342 482.5,845.5C 498.167,845.5 513.833,845.5 529.5,845.5C 529.83,861.342 529.496,877.009 528.5,892.5 Z"/></g>
<g><path style="opacity:1" fill="#317272" d="M 528.5,892.5 C 513.5,892.5 498.5,892.5 483.5,892.5C 483.5,877.167 483.5,861.833 483.5,846.5C 498.5,846.5 513.5,846.5 528.5,846.5C 528.5,861.833 528.5,877.167 528.5,892.5 Z"/></g>
<g><path style="opacity:1" fill="#237e7e" d="M 602.5,846.5 C 587.167,846.5 571.833,846.5 556.5,846.5C 556.5,861.833 556.5,877.167 556.5,892.5C 555.504,877.009 555.17,861.342 555.5,845.5C 571.342,845.17 587.009,845.504 602.5,846.5 Z"/></g>
<g><path style="opacity:1" fill="#37acac" d="M 602.5,846.5 C 602.5,861.833 602.5,877.167 602.5,892.5C 587.167,892.5 571.833,892.5 556.5,892.5C 556.5,877.167 556.5,861.833 556.5,846.5C 571.833,846.5 587.167,846.5 602.5,846.5 Z"/></g>
<g><path style="opacity:1" fill="#1c5555" d="M 675.5,846.5 C 660.167,846.5 644.833,846.5 629.5,846.5C 629.5,861.833 629.5,877.167 629.5,892.5C 628.504,877.009 628.17,861.342 628.5,845.5C 644.342,845.17 660.009,845.504 675.5,846.5 Z"/></g>
<g><path style="opacity:1" fill="#317272" d="M 675.5,846.5 C 675.5,861.833 675.5,877.167 675.5,892.5C 660.167,892.5 644.833,892.5 629.5,892.5C 629.5,877.167 629.5,861.833 629.5,846.5C 644.833,846.5 660.167,846.5 675.5,846.5 Z"/></g>
<g><path style="opacity:1" fill="#195151" d="M 748.5,846.5 C 733.167,846.5 717.833,846.5 702.5,846.5C 702.5,861.833 702.5,877.167 702.5,892.5C 701.504,877.009 701.17,861.342 701.5,845.5C 717.342,845.17 733.009,845.504 748.5,846.5 Z"/></g>
<g><path style="opacity:1" fill="#317272" d="M 748.5,846.5 C 748.5,861.833 748.5,877.167 748.5,892.5C 733.167,892.5 717.833,892.5 702.5,892.5C 702.5,877.167 702.5,861.833 702.5,846.5C 717.833,846.5 733.167,846.5 748.5,846.5 Z"/></g>
<g><path style="opacity:1" fill="#154b4b" d="M 821.5,846.5 C 806.167,846.5 790.833,846.5 775.5,846.5C 775.5,861.833 775.5,877.167 775.5,892.5C 774.504,877.009 774.17,861.342 774.5,845.5C 790.342,845.17 806.009,845.504 821.5,846.5 Z"/></g>
<g><path style="opacity:1" fill="#317272" d="M 821.5,846.5 C 821.5,861.833 821.5,877.167 821.5,892.5C 806.167,892.5 790.833,892.5 775.5,892.5C 775.5,877.167 775.5,861.833 775.5,846.5C 790.833,846.5 806.167,846.5 821.5,846.5 Z"/></g>
<g><path style="opacity:1" fill="#114545" d="M 894.5,892.5 C 894.5,877.167 894.5,861.833 894.5,846.5C 879.167,846.5 863.833,846.5 848.5,846.5C 848.5,861.833 848.5,877.167 848.5,892.5C 847.504,877.009 847.17,861.342 847.5,845.5C 863.5,845.5 879.5,845.5 895.5,845.5C 895.83,861.342 895.496,877.009 894.5,892.5 Z"/></g>
<g><path style="opacity:1" fill="#317272" d="M 894.5,892.5 C 879.167,892.5 863.833,892.5 848.5,892.5C 848.5,877.167 848.5,861.833 848.5,846.5C 863.833,846.5 879.167,846.5 894.5,846.5C 894.5,861.833 894.5,877.167 894.5,892.5 Z"/></g>
<g><path style="opacity:1" fill="#314444" d="M 939.5,847.5 C 971.074,869.061 1002.41,891.061 1033.5,913.5C 1032.17,918.09 1029.5,919.59 1025.5,918C 995.361,896.694 965.361,875.194 935.5,853.5C 936.844,851.471 938.177,849.471 939.5,847.5 Z"/></g>
<g><path style="opacity:1" fill="#314444" d="M 387.5,859.5 C 392.926,861.901 393.593,865.068 389.5,869C 360.878,891.287 332.545,913.953 304.5,937C 302.003,935.839 300.003,933.839 298.5,931C 328.355,907.303 358.021,883.469 387.5,859.5 Z"/></g>
<g><path style="opacity:1" fill="#314444" d="M 927.5,863.5 C 958.037,886.357 988.037,910.024 1017.5,934.5C 1016.48,937.696 1014.48,939.529 1011.5,940C 981.858,916.688 952.524,893.022 923.5,869C 924.65,867.019 925.984,865.186 927.5,863.5 Z"/></g>
<g><path style="opacity:1" fill="#314444" d="M 399.5,874.5 C 401.916,875.916 403.916,877.916 405.5,880.5C 377.509,906.323 349.342,931.99 321,957.5C 319.333,955.833 317.667,954.167 316,952.5C 315.383,951.551 315.549,950.718 316.5,950C 345.007,925.656 372.673,900.489 399.5,874.5 Z"/></g>
<g><path style="opacity:1" fill="#314444" d="M 914.5,878.5 C 917.603,880.423 920.603,882.59 923.5,885C 949.356,908.1 975.023,931.433 1000.5,955C 999.359,957.308 997.692,959.141 995.5,960.5C 967.649,935.481 939.649,910.648 911.5,886C 910.483,884.951 910.316,883.784 911,882.5C 912.376,881.295 913.542,879.962 914.5,878.5 Z"/></g>
<g><path style="opacity:1" fill="#314444" d="M 410.5,892.5 C 413.167,892.5 415.833,892.5 418.5,892.5C 419.303,893.423 419.47,894.423 419,895.5C 392.695,922.805 366.028,949.805 339,976.5C 337.167,974.667 335.333,972.833 333.5,971C 359.007,944.66 384.673,918.493 410.5,892.5 Z"/></g>
<g><path style="opacity:1" fill="#314444" d="M 901.5,892.5 C 928.993,919.16 955.993,946.327 982.5,974C 980.667,975.833 978.833,977.667 977,979.5C 950.333,952.833 923.667,926.167 897,899.5C 896.333,898.833 896.333,898.167 897,897.5C 898.707,895.963 900.207,894.296 901.5,892.5 Z"/></g>
<g><path style="opacity:1" fill="#314444" d="M 427.5,903.5 C 432.025,904.787 433.525,907.454 432,911.5C 407.686,939.315 383.186,966.982 358.5,994.5C 356.35,992.851 354.35,991.018 352.5,989C 377.709,960.628 402.709,932.128 427.5,903.5 Z"/></g>
<g><path style="opacity:1" fill="#317272" d="M 629.5,909.5 C 644.833,909.5 660.167,909.5 675.5,909.5C 675.5,924.833 675.5,940.167 675.5,955.5C 675.5,940.167 675.5,924.833 675.5,909.5C 660.167,909.5 644.833,909.5 629.5,909.5 Z"/></g>
<g><path style="opacity:1" fill="#37acac" d="M 702.5,909.5 C 717.833,909.5 733.167,909.5 748.5,909.5C 748.5,924.833 748.5,940.167 748.5,955.5C 748.5,940.167 748.5,924.833 748.5,909.5C 733.167,909.5 717.833,909.5 702.5,909.5 Z"/></g>
<g><path style="opacity:1" fill="#317272" d="M 894.5,914.5 C 894.5,918.833 894.5,923.167 894.5,927.5C 894.5,934.167 894.5,940.833 894.5,947.5C 894.5,950.5 894.5,953.5 894.5,956.5C 893.5,956.5 892.5,956.5 891.5,956.5C 885.833,956.5 880.167,956.5 874.5,956.5C 871.167,956.5 867.833,956.5 864.5,956.5C 859.5,956.5 854.5,956.5 849.5,956.5C 848.662,956.158 848.328,955.492 848.5,954.5C 848.5,939.5 848.5,924.5 848.5,909.5C 863.833,909.5 879.167,909.5 894.5,909.5C 894.5,911.167 894.5,912.833 894.5,914.5 Z"/></g>
<g><path style="opacity:1" fill="#314444" d="M 894.5,914.5 C 917.263,940.437 940.263,966.27 963.5,992C 961.599,994.613 959.265,996.28 956.5,997C 936.168,973.478 915.501,950.312 894.5,927.5C 894.5,923.167 894.5,918.833 894.5,914.5 Z"/></g>
<g><path style="opacity:1" fill="#314444" d="M 442.5,916.5 C 445.455,916.981 447.789,918.481 449.5,921C 426,951.167 402.5,981.333 379,1011.5C 376.54,1010.04 374.373,1008.21 372.5,1006C 395.963,976.227 419.296,946.394 442.5,916.5 Z"/></g>
<g><path style="opacity:1" fill="#314444" d="M 458.5,928.5 C 461.455,928.981 463.789,930.481 465.5,933C 444.543,963.08 423.71,993.246 403,1023.5C 401.887,1025.33 400.387,1026.16 398.5,1026C 396.651,1024.91 394.984,1023.57 393.5,1022C 415.387,990.953 437.054,959.787 458.5,928.5 Z"/></g>
<g><path style="opacity:1" fill="#314444" d="M 474.5,939.5 C 476.963,939.781 479.13,940.781 481,942.5C 481.52,944.289 481.187,945.956 480,947.5C 460.667,978.833 441.333,1010.17 422,1041.5C 419.833,1040 417.667,1038.5 415.5,1037C 435.419,1004.6 455.086,972.097 474.5,939.5 Z"/></g>
<g><path style="opacity:1" fill="#314444" d="M 848.5,954.5 C 848.328,955.492 848.662,956.158 849.5,956.5C 865.476,983.778 881.976,1010.78 899,1037.5C 898.569,1040.45 896.735,1042.45 893.5,1043.5C 873.764,1012.37 854.264,981.037 835,949.5C 834.018,948.241 833.685,946.908 834,945.5C 835.745,944.044 837.578,942.711 839.5,941.5C 842.276,946.074 845.276,950.407 848.5,954.5 Z"/></g>
<g><path style="opacity:1" fill="#314444" d="M 894.5,947.5 C 910.089,967.601 925.922,987.601 942,1007.5C 942.667,1008.5 942.667,1009.5 942,1010.5C 940.045,1011.45 938.378,1012.79 937,1014.5C 921.619,995.291 906.452,975.958 891.5,956.5C 892.5,956.5 893.5,956.5 894.5,956.5C 894.5,953.5 894.5,950.5 894.5,947.5 Z"/></g>
<g><path style="opacity:1" fill="#314444" d="M 821.5,951.5 C 822.376,951.369 823.043,951.702 823.5,952.5C 840.746,985.326 858.246,1017.99 876,1050.5C 876.749,1051.64 876.583,1052.64 875.5,1053.5C 873.668,1054.25 872.001,1055.25 870.5,1056.5C 851.913,1022.99 833.579,989.327 815.5,955.5C 817.565,954.143 819.565,952.81 821.5,951.5 Z"/></g>
<g><path style="opacity:1" fill="#298989" d="M 497.5,956.5 C 494.5,956.5 491.5,956.5 488.5,956.5C 486.5,956.5 484.5,956.5 482.5,956.5C 482.5,940.833 482.5,925.167 482.5,909.5C 498.167,909.5 513.833,909.5 529.5,909.5C 529.5,925.167 529.5,940.833 529.5,956.5C 518.833,956.5 508.167,956.5 497.5,956.5 Z"/></g>
<g><path style="opacity:1" fill="#38adac" d="M 483.5,910.5 C 498.5,910.5 513.5,910.5 528.5,910.5C 528.5,925.5 528.5,940.5 528.5,955.5C 513.5,955.5 498.5,955.5 483.5,955.5C 483.5,940.5 483.5,925.5 483.5,910.5 Z"/></g>
<g><path style="opacity:1" fill="#1f5959" d="M 629.5,909.5 C 629.5,924.833 629.5,940.167 629.5,955.5C 644.833,955.5 660.167,955.5 675.5,955.5C 660.009,956.496 644.342,956.83 628.5,956.5C 628.17,940.658 628.504,924.991 629.5,909.5 Z"/></g>
<g><path style="opacity:1" fill="#217979" d="M 702.5,909.5 C 702.5,924.833 702.5,940.167 702.5,955.5C 717.833,955.5 733.167,955.5 748.5,955.5C 733.009,956.496 717.342,956.83 701.5,956.5C 701.17,940.658 701.504,924.991 702.5,909.5 Z"/></g>
<g><path style="opacity:1" fill="#314444" d="M 488.5,956.5 C 491.5,956.5 494.5,956.5 497.5,956.5C 480.267,989.299 462.767,1021.97 445,1054.5C 442.75,1053.29 440.583,1051.96 438.5,1050.5C 455.179,1019.14 471.846,987.806 488.5,956.5 Z"/></g>
<g><path style="opacity:1" fill="#314444" d="M 864.5,956.5 C 867.833,956.5 871.167,956.5 874.5,956.5C 889.78,978.953 905.28,1001.29 921,1023.5C 921.667,1024.17 921.667,1024.83 921,1025.5C 919.255,1026.96 917.422,1028.29 915.5,1029.5C 898.244,1005.31 881.244,980.979 864.5,956.5 Z"/></g>
<g><path style="opacity:1" fill="#314444" d="M 490.5,1019.5 C 487.833,1019.5 485.167,1019.5 482.5,1019.5C 482.5,1025.83 482.5,1032.17 482.5,1038.5C 477.775,1047.62 473.275,1056.95 469,1066.5C 467.247,1065.37 465.413,1064.37 463.5,1063.5C 462.386,1062.28 462.219,1060.94 463,1059.5C 478.551,1025.67 494.384,992.004 510.5,958.5C 512.833,959.667 515.167,960.833 517.5,962C 508.358,981.117 499.358,1000.28 490.5,1019.5 Z"/></g>
<g><path style="opacity:1" fill="#314444" d="M 810.5,973.5 C 807.5,973.5 804.5,973.5 801.5,973.5C 800.866,970.063 799.533,966.896 797.5,964C 799.833,962.833 802.167,961.667 804.5,960.5C 807.322,964.476 809.322,968.809 810.5,973.5 Z"/></g>
<g><path style="opacity:1" fill="#314444" d="M 516.5,1019.5 C 513.5,1019.5 510.5,1019.5 507.5,1019.5C 513.915,1001.59 520.915,983.919 528.5,966.5C 530.912,967.577 533.246,968.744 535.5,970C 528.671,986.323 522.337,1002.82 516.5,1019.5 Z"/></g>
<g><path style="opacity:1" fill="#317272" d="M 556.5,973.5 C 571.833,973.5 587.167,973.5 602.5,973.5C 602.5,980.167 602.5,986.833 602.5,993.5C 602.5,1002.17 602.5,1010.83 602.5,1019.5C 587.167,1019.5 571.833,1019.5 556.5,1019.5C 556.5,1004.17 556.5,988.833 556.5,973.5 Z"/></g>
<g><path style="opacity:1" fill="#37acac" d="M 629.5,973.5 C 644.833,973.5 660.167,973.5 675.5,973.5C 675.5,988.833 675.5,1004.17 675.5,1019.5C 675.5,1004.17 675.5,988.833 675.5,973.5C 660.167,973.5 644.833,973.5 629.5,973.5 Z"/></g>
<g><path style="opacity:1" fill="#327372" d="M 775.5,973.5 C 784.167,973.5 792.833,973.5 801.5,973.5C 804.5,973.5 807.5,973.5 810.5,973.5C 814.167,973.5 817.833,973.5 821.5,973.5C 821.5,981.167 821.5,988.833 821.5,996.5C 821.5,1003.17 821.5,1009.83 821.5,1016.5C 821.5,1017.5 821.5,1018.5 821.5,1019.5C 806.167,1019.5 790.833,1019.5 775.5,1019.5C 775.5,1004.17 775.5,988.833 775.5,973.5 Z"/></g>
<g><path style="opacity:1" fill="#314444" d="M 529.5,1049.5 C 529.5,1040.83 529.5,1032.17 529.5,1023.5C 535.063,1007.31 540.563,990.979 546,974.5C 546.333,974.167 546.667,973.833 547,973.5C 549.007,974.669 551.173,975.335 553.5,975.5C 546.074,1000.44 538.074,1025.11 529.5,1049.5 Z"/></g>
<g><path style="opacity:1" fill="#314444" d="M 747.5,980.5 C 748.75,980.577 749.583,981.244 750,982.5C 760.128,1019.01 769.628,1055.68 778.5,1092.5C 775.833,1092.83 773.167,1093.17 770.5,1093.5C 761.461,1056.68 751.795,1020.01 741.5,983.5C 743.745,982.792 745.745,981.792 747.5,980.5 Z"/></g>
<g><path style="opacity:1" fill="#314444" d="M 598.5,1020.5 C 600.099,1020.77 601.432,1020.43 602.5,1019.5C 602.5,1010.83 602.5,1002.17 602.5,993.5C 603.451,992.081 603.784,990.415 603.5,988.5C 606.206,988.575 608.873,988.908 611.5,989.5C 606.166,1027.17 600.833,1064.83 595.5,1102.5C 592.833,1102.5 590.167,1102.5 587.5,1102.5C 591.167,1075.16 594.834,1047.83 598.5,1020.5 Z"/></g>
<g><path style="opacity:1" fill="#304545" d="M 748.5,1037.5 C 733.167,1037.5 717.833,1037.5 702.5,1037.5C 704.607,1036.53 706.941,1036.2 709.5,1036.5C 707.539,1021.1 705.205,1005.77 702.5,990.5C 705.428,989.516 708.428,989.183 711.5,989.5C 713.499,1005.16 715.499,1020.83 717.5,1036.5C 722.167,1036.5 726.833,1036.5 731.5,1036.5C 729.013,1019.73 726.013,1003.07 722.5,986.5C 725.206,986.425 727.873,986.092 730.5,985.5C 733.579,1002.56 736.912,1019.56 740.5,1036.5C 743.385,1036.19 746.052,1036.53 748.5,1037.5 Z"/></g>
<g><path style="opacity:1" fill="#314444" d="M 628.5,991.5 C 628.5,1001.17 628.5,1010.83 628.5,1020.5C 626.245,1049.15 624.245,1077.81 622.5,1106.5C 620.143,1106.66 617.81,1106.5 615.5,1106C 614.376,1105.16 613.709,1103.99 613.5,1102.5C 617.296,1065.54 620.63,1028.54 623.5,991.5C 625.167,991.5 626.833,991.5 628.5,991.5 Z"/></g>
<g><path style="opacity:1" fill="#314444" d="M 685.5,991.5 C 687.5,991.5 689.5,991.5 691.5,991.5C 694.216,1029.53 697.216,1067.53 700.5,1105.5C 697.833,1105.83 695.167,1106.17 692.5,1106.5C 690.012,1069.96 687.012,1033.46 683.5,997C 683.698,994.879 684.364,993.046 685.5,991.5 Z"/></g>
<g><path style="opacity:1" fill="#314444" d="M 821.5,996.5 C 832.061,1018.63 842.394,1040.96 852.5,1063.5C 850.892,1066.48 848.559,1067.48 845.5,1066.5C 837.672,1049.64 829.672,1032.98 821.5,1016.5C 821.5,1009.83 821.5,1003.17 821.5,996.5 Z"/></g>
<g><path style="opacity:1" fill="#215252" d="M 556.5,973.5 C 556.5,988.833 556.5,1004.17 556.5,1019.5C 571.833,1019.5 587.167,1019.5 602.5,1019.5C 601.432,1020.43 600.099,1020.77 598.5,1020.5C 594.167,1020.5 589.833,1020.5 585.5,1020.5C 582.5,1020.5 579.5,1020.5 576.5,1020.5C 571.833,1020.5 567.167,1020.5 562.5,1020.5C 560.167,1020.5 557.833,1020.5 555.5,1020.5C 555.5,1019.5 555.5,1018.5 555.5,1017.5C 555.171,1002.66 555.504,987.99 556.5,973.5 Z"/></g>
<g><path style="opacity:1" fill="#2a6d6d" d="M 629.5,973.5 C 629.5,988.833 629.5,1004.17 629.5,1019.5C 644.833,1019.5 660.167,1019.5 675.5,1019.5C 674.791,1020.4 673.791,1020.74 672.5,1020.5C 669.833,1020.5 667.167,1020.5 664.5,1020.5C 659.833,1020.5 655.167,1020.5 650.5,1020.5C 647.833,1020.5 645.167,1020.5 642.5,1020.5C 637.833,1020.5 633.167,1020.5 628.5,1020.5C 628.5,1010.83 628.5,1001.17 628.5,991.5C 628.177,985.31 628.51,979.31 629.5,973.5 Z"/></g>
<g><path style="opacity:1" fill="#317171" d="M 490.5,1019.5 C 496.167,1019.5 501.833,1019.5 507.5,1019.5C 510.5,1019.5 513.5,1019.5 516.5,1019.5C 520.833,1019.5 525.167,1019.5 529.5,1019.5C 529.5,1020.83 529.5,1022.17 529.5,1023.5C 529.5,1032.17 529.5,1040.83 529.5,1049.5C 529.5,1055.17 529.5,1060.83 529.5,1066.5C 527.833,1066.5 526.167,1066.5 524.5,1066.5C 521.5,1066.5 518.5,1066.5 515.5,1066.5C 509.5,1066.5 503.5,1066.5 497.5,1066.5C 494.5,1066.5 491.5,1066.5 488.5,1066.5C 486.5,1066.5 484.5,1066.5 482.5,1066.5C 482.5,1057.17 482.5,1047.83 482.5,1038.5C 482.5,1032.17 482.5,1025.83 482.5,1019.5C 485.167,1019.5 487.833,1019.5 490.5,1019.5 Z"/></g>
<g><path style="opacity:1" fill="#314444" d="M 555.5,1017.5 C 555.5,1018.5 555.5,1019.5 555.5,1020.5C 557.833,1020.5 560.167,1020.5 562.5,1020.5C 556.498,1044.17 550.331,1067.84 544,1091.5C 538.43,1093.22 536.097,1091.22 537,1085.5C 542.882,1062.63 549.049,1039.96 555.5,1017.5 Z"/></g>
<g><path style="opacity:1" fill="#324444" d="M 576.5,1020.5 C 579.5,1020.5 582.5,1020.5 585.5,1020.5C 579.79,1046.38 574.456,1072.38 569.5,1098.5C 566.833,1098.17 564.167,1097.83 561.5,1097.5C 566.825,1071.88 571.825,1046.22 576.5,1020.5 Z"/></g>
<g><path style="opacity:1" fill="#324444" d="M 642.5,1020.5 C 645.167,1020.5 647.833,1020.5 650.5,1020.5C 649.371,1049.49 648.704,1078.49 648.5,1107.5C 645.833,1107.5 643.167,1107.5 640.5,1107.5C 640.922,1078.49 641.589,1049.49 642.5,1020.5 Z"/></g>
<g><path style="opacity:1" fill="#324444" d="M 664.5,1020.5 C 667.167,1020.5 669.833,1020.5 672.5,1020.5C 672.755,1049.51 673.422,1078.51 674.5,1107.5C 671.833,1107.5 669.167,1107.5 666.5,1107.5C 665.814,1078.5 665.147,1049.5 664.5,1020.5 Z"/></g>
<g><path style="opacity:1" fill="#314545" d="M 775.5,973.5 C 775.5,988.833 775.5,1004.17 775.5,1019.5C 790.833,1019.5 806.167,1019.5 821.5,1019.5C 817.018,1020.33 812.351,1020.83 807.5,1021C 814.833,1039 822.167,1057 829.5,1075C 827.278,1075.69 825.111,1076.53 823,1077.5C 822.228,1077.36 821.561,1077.02 821,1076.5C 813.529,1057.92 806.362,1039.25 799.5,1020.5C 794.125,1020.17 788.792,1020.51 783.5,1021.5C 790.5,1042.17 797.5,1062.83 804.5,1083.5C 801.894,1085.27 799.228,1085.94 796.5,1085.5C 784.388,1049.67 772.388,1013.83 760.5,978C 762.948,976.388 765.615,975.721 768.5,976C 770.525,981.074 772.359,986.241 774,991.5C 774.172,985.319 774.672,979.319 775.5,973.5 Z"/></g>
<g><path style="opacity:1" fill="#327372" d="M 702.5,1037.5 C 717.833,1037.5 733.167,1037.5 748.5,1037.5C 748.5,1050.83 748.5,1064.17 748.5,1077.5C 748.5,1079.5 748.5,1081.5 748.5,1083.5C 746.5,1083.5 744.5,1083.5 742.5,1083.5C 736.5,1083.5 730.5,1083.5 724.5,1083.5C 721.833,1083.5 719.167,1083.5 716.5,1083.5C 711.833,1083.5 707.167,1083.5 702.5,1083.5C 702.5,1068.17 702.5,1052.83 702.5,1037.5 Z"/></g>
<g><path style="opacity:1" fill="#314444" d="M 488.5,1066.5 C 491.5,1066.5 494.5,1066.5 497.5,1066.5C 496.216,1070.01 494.55,1073.35 492.5,1076.5C 486.249,1075.08 484.916,1071.74 488.5,1066.5 Z"/></g>
<g><path style="opacity:1" fill="#314444" d="M 515.5,1066.5 C 518.5,1066.5 521.5,1066.5 524.5,1066.5C 522.369,1072.89 520.036,1079.22 517.5,1085.5C 515.075,1084.69 512.742,1083.69 510.5,1082.5C 512.575,1077.28 514.242,1071.94 515.5,1066.5 Z"/></g>
<g><path style="opacity:1" fill="#314444" d="M 748.5,1077.5 C 750.69,1084.26 752.356,1091.26 753.5,1098.5C 750.455,1098.51 747.455,1098.84 744.5,1099.5C 744.223,1094.11 743.556,1088.78 742.5,1083.5C 744.5,1083.5 746.5,1083.5 748.5,1083.5C 748.5,1081.5 748.5,1079.5 748.5,1077.5 Z"/></g>
<g><path style="opacity:1" fill="#314444" d="M 716.5,1083.5 C 719.167,1083.5 721.833,1083.5 724.5,1083.5C 726.006,1089.73 726.673,1096.07 726.5,1102.5C 723.873,1103.09 721.206,1103.42 718.5,1103.5C 718.489,1096.76 717.822,1090.09 716.5,1083.5 Z"/></g>
<g><path style="opacity:1" fill="#c8fbc9" d="M 452.5,1094.5 C 463.468,1097.77 474.135,1101.94 484.5,1107C 496.759,1115.05 499.925,1125.88 494,1139.5C 488.436,1154.2 482.102,1168.53 475,1182.5C 466.139,1190.98 455.972,1192.82 444.5,1188C 436.019,1184.59 427.686,1180.92 419.5,1177C 430.795,1149.61 441.795,1122.11 452.5,1094.5 Z"/></g>
<g><path style="opacity:1" fill="#c7fac8" d="M 813.5,1141.5 C 811.978,1135.95 811.311,1130.28 811.5,1124.5C 812.466,1119.08 815.133,1114.58 819.5,1111C 830.092,1102.77 841.425,1101.44 853.5,1107C 855.825,1109.29 858.158,1111.62 860.5,1114C 856.651,1117.68 852.984,1121.52 849.5,1125.5C 842.248,1117.52 835.082,1117.52 828,1125.5C 826.507,1132.03 828.673,1136.87 834.5,1140C 843.483,1139.62 852.483,1139.62 861.5,1140C 872.558,1143.4 879.058,1150.9 881,1162.5C 882.822,1172.06 879.989,1179.89 872.5,1186C 863.475,1192.34 853.475,1195.01 842.5,1194C 836.578,1192.2 831.911,1188.7 828.5,1183.5C 832.123,1179.37 835.957,1175.37 840,1171.5C 848,1179.5 856,1179.5 864,1171.5C 865.007,1166.89 864.34,1162.56 862,1158.5C 860.829,1157.11 859.329,1156.27 857.5,1156C 850.32,1155.4 843.154,1155.56 836,1156.5C 825.37,1156.11 817.87,1151.11 813.5,1141.5 Z"/></g>
<g><path style="opacity:1" fill="#c7fac8" d="M 505.5,1114.5 C 521.833,1118.5 538.167,1122.5 554.5,1126.5C 553.19,1131.75 552.19,1137.08 551.5,1142.5C 540.995,1139.92 530.495,1137.25 520,1134.5C 518.674,1134.75 517.674,1135.42 517,1136.5C 515.482,1142.86 513.982,1149.19 512.5,1155.5C 521.969,1157.23 531.303,1159.56 540.5,1162.5C 539.457,1167.73 537.79,1172.73 535.5,1177.5C 526.302,1174.56 516.969,1172.23 507.5,1170.5C 505.99,1177.16 504.823,1183.82 504,1190.5C 514.264,1193.11 524.431,1196.11 534.5,1199.5C 534.833,1199.83 535.167,1200.17 535.5,1200.5C 533.866,1205.04 532.866,1209.7 532.5,1214.5C 516.188,1210.71 500.021,1206.38 484,1201.5C 490.686,1172.42 497.852,1143.42 505.5,1114.5 Z"/></g>
<g><path style="opacity:1" fill="#043231" d="M 462.5,1114.5 C 469.228,1115.94 474.728,1119.27 479,1124.5C 479.667,1126.83 479.667,1129.17 479,1131.5C 474,1143.83 469,1156.17 464,1168.5C 460.345,1173.27 455.512,1174.77 449.5,1173C 446.246,1171.97 443.246,1170.47 440.5,1168.5C 447.849,1150.47 455.182,1132.47 462.5,1114.5 Z"/></g>
<g><path style="opacity:1" fill="#c8fbc9" d="M 809.5,1132.5 C 810.462,1135.74 811.795,1138.74 813.5,1141.5C 815.464,1152.95 817.964,1164.28 821,1175.5C 824.928,1193.16 818.428,1204.66 801.5,1210C 787.13,1214.66 776.296,1210.49 769,1197.5C 764.479,1182.38 760.813,1167.05 758,1151.5C 755.82,1138.36 760.654,1128.86 772.5,1123C 781.874,1118.54 791.207,1118.54 800.5,1123C 804.38,1125.38 807.38,1128.55 809.5,1132.5 Z"/></g>
<g><path style="opacity:1" fill="#c8fbc9" d="M 579.5,1132.5 C 589.501,1133.22 599.501,1134.05 609.5,1135C 624.841,1137.17 632.507,1146.01 632.5,1161.5C 630.924,1177.16 629.424,1192.82 628,1208.5C 624.477,1217.35 617.977,1222.52 608.5,1224C 596.787,1224.53 585.12,1224.03 573.5,1222.5C 574.94,1192.45 576.94,1162.45 579.5,1132.5 Z"/></g>
<g><path style="opacity:1" fill="#c8fbc9" d="M 718.5,1132.5 C 726.337,1131.97 734.003,1132.8 741.5,1135C 748.28,1139.39 752.446,1145.56 754,1153.5C 754.672,1161.54 755.672,1169.54 757,1177.5C 758.142,1185.81 758.475,1194.14 758,1202.5C 756.488,1211.02 751.655,1216.85 743.5,1220C 731.628,1222.64 719.628,1224.47 707.5,1225.5C 703.746,1195.54 700.413,1165.54 697.5,1135.5C 704.71,1135.03 711.71,1134.03 718.5,1132.5 Z"/></g>
<g><path style="opacity:1" fill="#053232" d="M 781.5,1136.5 C 789.271,1135.29 794.438,1138.29 797,1145.5C 799.533,1158.26 802.367,1170.93 805.5,1183.5C 804.261,1192.13 799.261,1195.96 790.5,1195C 785.809,1192.63 782.976,1188.8 782,1183.5C 779.417,1171.34 776.917,1159.17 774.5,1147C 774.729,1142.03 777.062,1138.53 781.5,1136.5 Z"/></g>
<g><path style="opacity:1" fill="#c7fac8" d="M 656.5,1137.5 C 660.437,1137.21 664.27,1137.54 668,1138.5C 678.068,1167.54 688.235,1196.54 698.5,1225.5C 692.833,1226.83 687.167,1226.83 681.5,1225.5C 680.368,1221.44 679.035,1217.44 677.5,1213.5C 668.859,1212.83 660.192,1212.83 651.5,1213.5C 650.343,1218.46 649.343,1223.46 648.5,1228.5C 642.794,1228.83 637.128,1228.5 631.5,1227.5C 639.836,1197.49 648.17,1167.49 656.5,1137.5 Z"/></g>
<g><path style="opacity:1" fill="#50806c" d="M 811.5,1124.5 C 811.311,1130.28 811.978,1135.95 813.5,1141.5C 811.795,1138.74 810.462,1135.74 809.5,1132.5C 810.167,1129.83 810.833,1127.17 811.5,1124.5 Z"/></g>
<g><path style="opacity:1" fill="#043232" d="M 716.5,1148.5 C 721.179,1148.33 725.845,1148.5 730.5,1149C 732.848,1149.35 734.681,1150.51 736,1152.5C 738.563,1163.67 740.229,1175 741,1186.5C 744.427,1202.58 737.927,1209.58 721.5,1207.5C 719.318,1189.7 717.318,1171.86 715.5,1154C 715.581,1152.08 715.914,1150.24 716.5,1148.5 Z"/></g>
<g><path style="opacity:1" fill="#043232" d="M 594.5,1149.5 C 599.566,1149.34 604.566,1149.84 609.5,1151C 613.66,1153.49 615.66,1157.16 615.5,1162C 614.616,1172.5 613.782,1183 613,1193.5C 612.827,1197.72 611.827,1201.72 610,1205.5C 609.097,1206.7 607.931,1207.53 606.5,1208C 601.177,1208.5 595.844,1208.67 590.5,1208.5C 591.528,1188.81 592.861,1169.14 594.5,1149.5 Z"/></g>
<g><path style="opacity:1" fill="#093735" d="M 662.5,1167.5 C 666.197,1176.92 669.53,1186.59 672.5,1196.5C 667.208,1197.49 661.875,1197.83 656.5,1197.5C 657.867,1187.37 659.867,1177.37 662.5,1167.5 Z"/></g>
</svg>